<?xml version="1.0" standalone="no"?>
<!DOCTYPE svg PUBLIC "-//W3C//DTD SVG 20010904//EN"
 "http://www.w3.org/TR/2001/REC-SVG-20010904/DTD/svg10.dtd">
<svg version="1.0" xmlns="http://www.w3.org/2000/svg"
 width="280.000000pt" height="280.000000pt" viewBox="0 0 280.000000 280.000000"
 preserveAspectRatio="xMidYMid meet">
<metadata>
Created by potrace 1.11, written by Peter Selinger 2001-2013
</metadata>
<g transform="translate(0.000000,280.000000) scale(0.100000,-0.100000)"
fill="#000000" stroke="none">
<path d="M1883 2741 c-88 -41 -143 -130 -151 -246 -4 -63 -1 -80 21 -128 36
-78 86 -111 162 -105 62 5 111 37 156 102 83 122 63 301 -42 370 -41 26 -98
29 -146 7z"/>
<path d="M1154 2373 c-166 -57 -229 -334 -103 -450 101 -92 262 -13 312 153
54 181 -63 348 -209 297z"/>
<path d="M1728 2116 c-310 -130 -559 -404 -693 -761 -67 -179 -46 -294 45
-245 11 6 59 63 109 128 170 223 253 284 297 217 13 -20 16 -41 12 -93 -5 -66
-9 -76 -126 -364 -41 -99 -68 -194 -75 -261 -14 -128 96 -236 228 -225 l40 3
58 150 c56 145 193 543 218 635 7 25 14 50 15 55 22 79 74 288 78 315 3 19 8
46 10 60 23 131 22 278 -2 340 -10 25 -47 69 -60 71 -49 9 -89 2 -154 -25z"/>
<path d="M1016 1745 c-179 -63 -387 -222 -517 -395 -107 -144 -200 -330 -234
-468 -19 -80 -15 -130 14 -156 18 -16 22 -16 50 -2 16 9 70 69 120 133 174
229 265 290 301 204 12 -30 12 -118 0 -136 -4 -5 -10 -23 -14 -39 -4 -16 -20
-57 -36 -90 -128 -276 -166 -417 -137 -513 24 -78 133 -153 223 -153 38 0 37
-2 127 240 71 191 117 328 167 490 17 58 37 124 44 148 l14 43 -22 -18 c-11
-10 -23 -21 -26 -24 -9 -11 -52 -31 -78 -35 -38 -7 -74 12 -102 53 -23 34 -25
45 -24 142 0 95 4 118 37 213 41 120 80 202 143 301 24 37 45 70 46 74 6 14
-34 10 -96 -12z"/>
<path d="M1992 1453 c-38 -18 -71 -59 -107 -129 -32 -63 -32 -76 -1 -68 17 4
31 -1 46 -16 19 -19 21 -30 17 -74 -3 -28 -18 -91 -33 -141 -54 -181 -55 -218
-8 -275 26 -31 90 -55 117 -44 17 6 54 97 110 269 69 212 86 319 64 391 -27
88 -122 128 -205 87z"/>
<path d="M2065 568 c-33 -12 -255 -120 -495 -240 -557 -280 -585 -304 -288
-249 151 28 317 56 392 66 17 2 54 6 81 10 28 4 61 8 75 10 26 4 240 30 325
39 116 13 237 20 333 20 56 1 102 4 102 7 0 3 -33 40 -74 83 -69 72 -76 76
-101 66 -15 -6 -37 -17 -48 -25 -12 -8 -25 -15 -29 -15 -15 0 -88 72 -110 108
-46 78 -90 142 -96 141 -4 0 -34 -10 -67 -21z"/>
</g>
</svg>
