<?xml version="1.0" encoding="UTF-8"?>
<svg width="139px" height="40px" viewBox="0 0 139 40" version="1.1" xmlns="http://www.w3.org/2000/svg" xmlns:xlink="http://www.w3.org/1999/xlink">
    <title>Hiking Buddies</title>
    <g id="hiking-buddies-logo" stroke="none" stroke-width="1" fill="none" fill-rule="evenodd">
        <g id="pictogram">
            <g id="Logo-Copy" transform="translate(2.000000, 0.000000)">
                <path d="M13.524909,39.3471259 C14.1847309,38.8700452 25.1394376,32.0412713 26.2088466,31.6166388 C27.2871318,31.1884817 26.9981988,30.8751785 28.4361603,32.9028051 C28.9740899,33.6613236 29.8033038,34.364134 30.2996458,34.5357667 C30.5499662,34.6223263 31.3678846,33.5107803 31.8555989,33.8363524 C32.3433132,34.1619245 34.4853576,35.9837166 33.9854735,35.9201087 C31.9528449,35.661466 19.1849658,38.358307 13.9034521,40.0800024 C12.7234286,40.4646726 12.6958241,39.9465914 13.524909,39.3471259 Z" id="Mountain" fill="#00AD7D" transform="translate(23.506789, 35.756239) rotate(5.000000) translate(-23.506789, -35.756239) "></path>
                <path d="M12.8732137,13.0336317 C11.4062939,12.6021622 10.6555293,10.6842703 11.1963475,8.74985265 C11.7371657,6.81543501 13.3647699,5.59701625 14.8317169,6.0283906 C16.2986367,6.4598601 17.0494013,8.37775201 16.5085831,10.3121697 C15.9677649,12.2465873 14.3401607,13.4650061 12.8732137,13.0336317 Z M13.0211839,14.8178787 C10.3559396,18.2997681 9.53760261,21.9454221 9.54638998,23.5470352 C9.56102365,26.2142103 11.556042,27.049736 13.2426427,24.9100122 C11.6159477,31.0339598 8.89706437,37.7153841 8.78905865,37.9829154 C8.57581899,38.5111121 4.36926946,37.9368502 4.93961853,34.2569297 C5.5099676,30.5770092 8.5940998,26.8948042 7.73688821,24.8440245 C6.87967661,22.7932448 4.04331565,26.9001637 2.64016379,28.7816038 C1.23701193,30.6630439 0.40590511,29.6543619 0.632173415,28.0432004 C0.85844172,26.432039 3.53069144,18.1661508 11.4617214,15.0456431 C12.0927375,14.7973663 12.6077739,14.7304521 13.0211839,14.8178787 Z" id="Man-2" fill="#FFB400"></path>
                <path d="M25.5700473,8.68248534 C24.2353339,7.92367128 23.9244572,5.88171911 24.8756849,4.12165752 C25.8269125,2.36159593 27.6800338,1.54992443 29.0147472,2.30873848 C30.3494606,3.06755254 30.6603372,5.1095047 29.7091096,6.8695663 C28.7578819,8.62962789 26.9047606,9.44129939 25.5700473,8.68248534 Z M10.2032425,20.4352029 C10.786144,18.9162347 15.2493244,11.4633261 23.6790441,10.2068904 C32.1087638,8.95045468 16.3158141,31.4617884 15.9151179,31.9550635 C15.5144217,32.4483387 11.574089,31.2091986 12.9576221,27.7518948 C14.3411551,24.2945911 18.2194381,21.1072837 17.8455219,18.9162347 C17.4716056,16.7251858 13.7840846,20.0888022 11.9936636,21.6063806 C10.2032425,23.123959 9.62034094,21.9541711 10.2032425,20.4352029 Z M22.2482573,22.8246337 C23.4322955,20.8401038 24.634704,20.0239097 25.8554827,20.3760514 C27.6866508,20.904264 27.8798181,22.6624467 26.5903069,25.1352915 C25.3007958,27.6081362 23.5537068,30.2238059 23.1380801,30.7839508 C22.7224533,31.3440958 20.1104758,30.0138691 21.5114668,27.5958253 C22.1260605,26.5350658 23.6156441,24.204376 23.430687,23.4417098 C23.2900615,22.8618441 22.8959183,22.6561521 22.2482573,22.8246337 Z" id="Man-1" fill="#00AD7D" transform="translate(20.122795, 17.041666) rotate(-13.000000) translate(-20.122795, -17.041666) "></path>
            </g>
        </g>
        <g id="text" transform="translate(42.848684, 14.027344)" fill="#00AD7D" fill-rule="nonzero" stroke="#00AD7D" stroke-width="0.1">
            <path d="M0.510690966,14.9257813 C0.260689716,14.9257813 0.107045419,14.8971357 0.0497534659,14.8398438 C-0.00753848724,14.7825518 -0.0153509091,14.6705738 0.0263159659,14.5039063 C0.0367326846,14.4518227 0.0888154971,14.2200542 0.182565966,13.8085938 C0.276316435,13.3971334 0.393502763,12.8971384 0.534128466,12.3085938 C0.674754169,11.7200492 0.825794325,11.0820347 0.987253466,10.3945313 C1.14871261,9.70702786 1.3023569,9.06120098 1.44819097,8.45703129 C1.22943987,8.47786473 1.06798315,8.45963575 0.963815966,8.40234379 C0.859648778,8.34505184 0.810170107,8.26692762 0.815378466,8.16796879 C0.820586825,8.06900997 0.877877919,7.96744848 0.987253466,7.86328129 C1.09662901,7.75911411 1.25548159,7.67057333 1.46381597,7.59765629 C1.50548284,7.57682286 1.56798222,7.55598973 1.65131597,7.53515629 C1.70339956,7.35807208 1.75027409,7.17578223 1.79194097,6.98828129 C1.83360784,6.83203051 1.87527409,6.66536551 1.91694097,6.48828129 C1.95860784,6.31119708 2.00027409,6.13932379 2.04194097,5.97265629 L3.13569097,1.30078129 C3.19819128,1.06119676 3.29454448,0.88151106 3.42475347,0.761718794 C3.55496245,0.641926528 3.79714753,0.540365044 4.15131597,0.457031294 C4.44298409,0.384114263 4.64610706,0.355468716 4.76069097,0.371093794 C4.87527487,0.386718872 4.92735768,0.4205727 4.91694097,0.472656294 C4.88569081,0.5872402 4.80756659,0.863279106 4.68256597,1.30078129 C4.55756534,1.73828348 4.40912933,2.27213231 4.23725347,2.90234379 C4.06537761,3.53255528 3.88048362,4.22525668 3.68256597,4.98046879 C3.48464831,5.7356809 3.2919419,6.48306926 3.10444097,7.22265629 C3.72944409,7.12890583 4.48985315,7.05078161 5.38569097,6.98828129 C5.72944268,6.94661442 6.06537683,6.92057301 6.39350347,6.91015629 C6.72163011,6.89973958 7.03673112,6.89973958 7.33881597,6.91015629 C7.48465003,6.34765348 7.62787776,5.78515911 7.76850347,5.22265629 C7.90912917,4.66015348 8.04194034,4.13932536 8.16694097,3.66015629 C8.29194159,3.18098723 8.40391964,2.75651231 8.50287847,2.38671879 C8.60183729,2.01692528 8.67735737,1.74349051 8.72944097,1.56640629 C8.79194128,1.36848864 8.85183651,1.20703192 8.90912847,1.08203129 C8.96642042,0.957030669 9.03412808,0.858073325 9.11225347,0.785156294 C9.19037886,0.712239263 9.28152378,0.66015645 9.38569097,0.628906294 C9.48985815,0.597656138 9.60964862,0.571614731 9.74506597,0.550781294 C9.817983,0.550781294 9.90652378,0.545573013 10.010691,0.535156294 C10.0940247,0.535156294 10.1929821,0.532552153 10.307566,0.527343794 C10.4221499,0.522135435 10.5523569,0.529947856 10.698191,0.550781294 C10.3023557,1.61328661 9.93517183,2.68879668 9.59662847,3.77734379 C9.25808511,4.8658909 8.94298409,5.92577614 8.65131597,6.95703129 C8.8388169,6.97786473 9.00287776,6.99348958 9.14350347,7.00390629 C9.28412917,7.01432301 9.39610722,7.02994786 9.47944097,7.05078129 C9.72944222,7.09244817 9.88829479,7.16015583 9.95600347,7.25390629 C10.0237121,7.34765676 10.0002749,7.48307208 9.88569097,7.66015629 L9.69819097,7.89453129 C9.63569065,7.97786504 9.55756643,8.07421825 9.46381597,8.18359379 C9.3700655,8.29296934 9.25027503,8.41536395 9.10444097,8.55078129 C9.02110722,8.51953114 8.93517058,8.48828145 8.84662847,8.45703129 C8.75808636,8.42578114 8.67214972,8.39453145 8.58881597,8.36328129 C8.48464878,8.33203114 8.38569143,8.30078145 8.29194097,8.26953129 C8.21902393,8.51953254 8.15131628,8.76171762 8.08881597,8.99609379 C8.02631565,9.23046997 7.96902456,9.46744676 7.91694097,9.70703129 C7.79194034,10.2174505 7.67214987,10.7434869 7.55756597,11.2851563 C7.4638155,11.7539086 7.36746229,12.2721326 7.26850347,12.8398438 C7.16954464,13.407555 7.09402456,13.9674452 7.04194097,14.5195313 C6.95860722,14.5611982 6.87527472,14.5898437 6.79194097,14.6054688 C6.70860722,14.6210939 6.63569128,14.6341146 6.57319097,14.6445313 L6.35444097,14.6757813 L6.15131597,14.6757813 C6.10964909,14.6757813 6.06798284,14.6653647 6.02631597,14.6445313 C5.97423237,14.6341146 5.92214956,14.6184897 5.87006597,14.5976563 C5.81798237,14.5768229 5.7685037,14.5585939 5.72162847,14.5429688 C5.67475323,14.5273437 5.62527456,14.5039065 5.57319097,14.4726563 C5.65652472,14.1289046 5.72162823,13.8059911 5.76850347,13.5039063 C5.8153787,13.2018215 5.84923253,12.9361991 5.87006597,12.7070313 C5.90131612,12.4361966 5.92214925,12.1966157 5.93256597,11.9882813 C5.94298268,11.7174466 5.91433714,11.4205746 5.84662847,11.0976563 C5.77891979,10.774738 5.67475417,10.4570329 5.53412847,10.1445313 C5.39350276,9.83202973 5.22162948,9.54036598 5.01850347,9.26953129 C4.81537745,8.99869661 4.58360893,8.76953223 4.32319097,8.58203129 C4.062773,8.40494708 3.81537964,8.29036489 3.58100347,8.23828129 C3.34662729,8.1861977 3.1096505,8.17057286 2.87006597,8.19140629 C2.79714893,8.50390786 2.72944128,8.80598817 2.66694097,9.09765629 C2.60444065,9.38932442 2.55235784,9.67057161 2.51069097,9.94140629 C2.39610706,10.545576 2.28673315,11.1341118 2.18256597,11.7070313 C2.09923222,12.1966171 2.01329558,12.7044245 1.92475347,13.2304688 C1.83621136,13.7565131 1.77110784,14.2070294 1.72944097,14.5820313 C1.56277347,14.665365 1.40652503,14.7304686 1.26069097,14.7773438 C1.1148569,14.824219 0.984649872,14.8580729 0.870065966,14.8789063 C0.745065341,14.9101565 0.625274872,14.9257813 0.510690966,14.9257813 Z M6.69819097,7.98828129 C6.33360581,7.94661442 5.98725511,7.92317715 5.65912847,7.91796879 C5.33100183,7.91276043 5.04194222,7.91015629 4.79194097,7.91015629 C5.00027534,8.0247402 5.18516933,8.17578036 5.34662847,8.36328129 C5.50808761,8.55078223 5.67735675,8.76432176 5.85444097,9.00390629 C6.02110847,9.22265739 6.15652378,9.46223833 6.26069097,9.72265629 C6.36485815,9.98307426 6.45339893,10.2330718 6.52631597,10.4726563 C6.60964972,10.0351541 6.6981905,9.60807504 6.79194097,9.19140629 C6.88569143,8.77473754 6.97423222,8.38411645 7.05756597,8.01953129 C6.99506565,8.00911458 6.93517042,8.00130215 6.87787847,7.99609379 C6.82058651,7.99088543 6.76069128,7.98828129 6.69819097,7.98828129 Z M13.979441,2.76953129 C13.9481908,2.8841152 13.8882956,2.99609325 13.7997535,3.10546879 C13.7112114,3.21484434 13.612254,3.30338512 13.5028785,3.37109379 C13.3935029,3.43880247 13.2815249,3.48307286 13.166941,3.50390629 C13.0523571,3.52473973 12.958608,3.50390661 12.885691,3.44140629 C12.6669399,3.27473879 12.5523577,3.09505309 12.541941,2.90234379 C12.5315242,2.7096345 12.5783988,2.52734465 12.682566,2.35546879 C12.7867332,2.18359293 12.9169402,2.03776106 13.073191,1.91796879 C13.2294417,1.79817653 13.3648571,1.72786473 13.479441,1.70703129 C13.5940249,1.68619786 13.6903781,1.70963512 13.7685035,1.77734379 C13.8466289,1.84505247 13.9065241,1.93359325 13.948191,2.04296879 C13.9898578,2.15234434 14.0132951,2.27473895 14.0185035,2.41015629 C14.0237118,2.54557364 14.0106911,2.66536411 13.979441,2.76953129 Z M11.823191,6.09765629 C11.8752746,6.03515598 11.9742319,5.98307317 12.120066,5.94140629 C12.2659,5.89973942 12.4169402,5.86588559 12.573191,5.83984379 C12.7294417,5.813802 12.8726695,5.79817715 13.0028785,5.79296879 C13.1330875,5.78776043 13.2086075,5.79036461 13.229441,5.80078129 C13.2398577,5.81119801 13.2138163,5.92057192 13.151316,6.12890629 C13.0888157,6.33724067 13.0106914,6.58202989 12.916941,6.86328129 C12.8231905,7.1445327 12.7242332,7.43359231 12.620066,7.73046879 C12.5158988,8.02734528 12.4377746,8.26953036 12.385691,8.45703129 C12.3336074,8.64453223 12.271108,8.85546762 12.198191,9.08984379 C12.1252739,9.32421997 12.0601704,9.55338434 12.0028785,9.77734379 C11.9455865,10.0013032 11.9065244,10.2122386 11.885691,10.4101563 C11.8648575,10.608074 11.8804824,10.7591141 11.932566,10.8632813 C11.9846496,10.9882819 12.0419407,11.0742186 12.104441,11.1210938 C12.1669413,11.167969 12.2346489,11.1914063 12.307566,11.1914063 C12.5159003,11.1914063 12.7789185,11.0768241 13.0966285,10.8476563 C13.4143384,10.6184885 13.7372518,10.3450537 14.0653785,10.0273438 C14.3935051,9.70963387 14.6981896,9.38672043 14.979441,9.05859379 C15.2606924,8.73046715 15.4690236,8.46744895 15.604441,8.26953129 C15.6877747,8.16536411 15.7737114,8.09765645 15.8622533,8.06640629 C15.9507956,8.03515614 16.0237115,8.04036442 16.0810035,8.08203129 C16.1382954,8.12369817 16.1695451,8.19140583 16.1747535,8.28515629 C16.1799618,8.37890676 16.146108,8.48828067 16.073191,8.61328129 C15.9065235,8.90494942 15.6617342,9.25130012 15.338816,9.65234379 C15.0158977,10.0533875 14.6721511,10.4388003 14.307566,10.8085938 C13.9429808,11.1783873 13.5862135,11.4934883 13.2372535,11.7539063 C12.8882934,12.0143243 12.6044421,12.1497396 12.385691,12.1601563 C12.2086067,12.170573 12.0341293,12.1419275 11.8622533,12.0742188 C11.6903776,12.0065101 11.5341292,11.9127611 11.3935035,11.7929688 C11.2528778,11.6731765 11.1356914,11.5325529 11.041941,11.3710938 C10.9481905,11.2096347 10.8961077,11.0403655 10.885691,10.8632813 C10.8544408,10.6028633 10.8544408,10.2460961 10.885691,9.79296879 C10.9169411,9.33984153 10.9742322,8.8763045 11.057566,8.40234379 C11.1408997,7.92838309 11.2476695,7.47786676 11.3778785,7.05078129 C11.5080875,6.62369583 11.6565235,6.30599067 11.823191,6.09765629 Z M22.948191,8.86328129 C22.7086064,9.25911661 22.4351717,9.66796668 22.1278785,10.0898438 C21.8205853,10.5117209 21.4950677,10.8971337 21.151316,11.2460938 C20.8075642,11.5950539 20.4534011,11.8841135 20.088816,12.1132813 C19.7242308,12.3424491 19.3596511,12.4570313 18.995066,12.4570313 C18.6304808,12.4570313 18.3674626,12.3346367 18.2060035,12.0898438 C18.0445443,11.8450509 17.9690242,11.5716161 17.979441,11.2695313 C17.979441,11.134114 17.9924617,11.0143235 18.0185035,10.9101563 C18.0445453,10.8059891 18.0731908,10.71224 18.104441,10.6289063 C18.1356911,10.5455725 18.169545,10.4596359 18.2060035,10.3710938 C18.242462,10.2825517 18.2763158,10.1809902 18.307566,10.0664063 C18.3492328,9.93098895 18.351837,9.80859434 18.3153785,9.69921879 C18.27892,9.58984325 18.2346496,9.49349004 18.182566,9.41015629 C18.0888155,9.51432348 17.9820457,9.6054684 17.8622535,9.68359379 C17.7424612,9.76171918 17.5940252,9.80078129 17.416941,9.80078129 C17.2919403,9.80078129 17.1773582,9.74088606 17.073191,9.62109379 C16.9690238,9.50130153 16.916941,9.35286551 16.916941,9.17578129 C16.916941,9.02994723 16.9507948,8.91015676 17.0185035,8.81640629 C17.0862121,8.72265583 17.1643364,8.64973989 17.2528785,8.59765629 C17.3414206,8.5455727 17.4325655,8.50911473 17.526316,8.48828129 C17.6200664,8.46744786 17.6981907,8.45703129 17.760691,8.45703129 C17.7919411,8.45703129 17.8570446,8.46223958 17.9560035,8.47265629 C18.0549623,8.48307301 18.1617321,8.49869786 18.276316,8.51953129 C18.6513178,8.21744645 18.9195443,7.94401168 19.0810035,7.69921879 C19.2424626,7.4544259 19.2554833,7.23307395 19.120066,7.03515629 C19.0367322,6.89973895 18.9325666,6.82942715 18.807566,6.82421879 C18.6825653,6.81901043 18.5523583,6.85026012 18.416941,6.91796879 C18.2815236,6.98567747 18.1487125,7.07161411 18.0185035,7.17578129 C17.8882945,7.27994848 17.7711082,7.37890583 17.666941,7.47265629 C17.4586066,7.68099067 17.2268381,7.92838403 16.9716285,8.21484379 C16.7164189,8.50130356 16.5054835,8.73828036 16.338816,8.92578129 C16.2658989,9.23828286 16.192983,9.56640458 16.120066,9.91015629 C16.0575657,10.2122411 15.9872539,10.5533836 15.9091285,10.9335938 C15.8310031,11.313804 15.7502747,11.7070293 15.666941,12.1132813 C15.6044407,12.1445315 15.5393371,12.1679687 15.4716285,12.1835938 C15.4039198,12.1992189 15.3440246,12.2122396 15.291941,12.2226563 C15.2294407,12.233073 15.1669413,12.2382813 15.104441,12.2382813 C15.0211072,12.2382813 14.942983,12.2356772 14.870066,12.2304688 C14.7971489,12.2252604 14.7372537,12.199219 14.6903785,12.1523438 C14.6435032,12.1054686 14.6174618,12.0299485 14.6122535,11.9257813 C14.6070451,11.8216141 14.6356907,11.6757822 14.698191,11.4882813 C14.7815247,11.2174466 14.8856903,10.8554711 15.010691,10.4023438 C15.1356916,9.94921653 15.2658986,9.45182567 15.401316,8.91015629 C15.5367333,8.36848692 15.6747528,7.8033884 15.8153785,7.21484379 C15.9560042,6.62629918 16.0888153,6.06380481 16.213816,5.52734379 C16.3388166,4.99088278 16.4455864,4.50651262 16.5341285,4.07421879 C16.6226706,3.64192497 16.6877741,3.30078254 16.729441,3.05078129 C16.7606911,2.77994661 16.7919408,2.51953254 16.823191,2.26953129 C16.8440244,2.06119692 16.8570451,1.85546981 16.8622535,1.65234379 C16.8674618,1.44921778 16.8544411,1.29557348 16.823191,1.19140629 C16.8752746,1.1393227 16.9481905,1.09244817 17.041941,1.05078129 C17.1356914,1.00911442 17.2398571,0.977864731 17.354441,0.957031294 C17.4690249,0.925781138 17.6044402,0.899739731 17.760691,0.878906294 C17.9377752,0.858072927 18.0862112,0.852864575 18.2060035,0.863281294 C18.3257957,0.873698013 18.4117324,0.925780825 18.463816,1.01953129 C18.5263163,1.12369848 18.539337,1.2981759 18.5028785,1.54296879 C18.46642,1.78776168 18.3908999,2.12890411 18.276316,2.56640629 C18.1304819,3.12890911 17.9820459,3.64192481 17.8310035,4.10546879 C17.679961,4.56901278 17.5341292,5.00390426 17.3935035,5.41015629 C17.2528778,5.81640833 17.1174625,6.20963356 16.9872535,6.58984379 C16.8570445,6.97005403 16.7398582,7.35807293 16.635691,7.75390629 C16.8440253,7.45182145 17.1044394,7.13151215 17.416941,6.79296879 C17.7294425,6.45442543 18.0836057,6.17578239 18.479441,5.95703129 C18.8961097,5.7382802 19.2398563,5.62890629 19.510691,5.62890629 C19.844026,5.62890629 20.0836069,5.74088434 20.229441,5.96484379 C20.375275,6.18880325 20.4429827,6.45182145 20.432566,6.75390629 C20.4221492,6.99349083 20.362254,7.21484278 20.2528785,7.41796879 C20.1435029,7.62109481 20.0106917,7.80859293 19.854441,7.98046879 C19.6981902,8.15234465 19.5315252,8.30078067 19.354441,8.42578129 C19.1773567,8.55078192 19.0263166,8.65494754 18.901316,8.73828129 C19.04715,8.82161504 19.1747529,8.93359309 19.2841285,9.07421879 C19.393504,9.2148445 19.4429827,9.38932192 19.432566,9.59765629 C19.4221492,9.8789077 19.3674623,10.1263011 19.2685035,10.3398438 C19.1695446,10.5533865 19.120066,10.7486971 19.120066,10.9257813 C19.1304827,11.0611986 19.1591282,11.160156 19.2060035,11.2226563 C19.2528787,11.2851566 19.3544402,11.3164063 19.510691,11.3164063 C19.7919424,11.3164063 20.0862103,11.1966158 20.3935035,10.9570313 C20.7007967,10.7174468 20.9898563,10.4414079 21.260691,10.1289063 C21.5315257,9.81640473 21.7815232,9.506512 22.010691,9.19921879 C22.2398588,8.89192559 22.4169403,8.66536536 22.541941,8.51953129 C22.7190252,8.33203036 22.8674612,8.28255168 22.9872535,8.37109379 C23.1070457,8.4596359 23.094025,8.62369676 22.948191,8.86328129 Z M25.416941,2.76953129 C25.3856908,2.8841152 25.3257956,2.99609325 25.2372535,3.10546879 C25.1487114,3.21484434 25.049754,3.30338512 24.9403785,3.37109379 C24.8310029,3.43880247 24.7190249,3.48307286 24.604441,3.50390629 C24.4898571,3.52473973 24.396108,3.50390661 24.323191,3.44140629 C24.1044399,3.27473879 23.9898577,3.09505309 23.979441,2.90234379 C23.9690242,2.7096345 24.0158988,2.52734465 24.120066,2.35546879 C24.2242332,2.18359293 24.3544402,2.03776106 24.510691,1.91796879 C24.6669417,1.79817653 24.8023571,1.72786473 24.916941,1.70703129 C25.0315249,1.68619786 25.1278781,1.70963512 25.2060035,1.77734379 C25.2841289,1.84505247 25.3440241,1.93359325 25.385691,2.04296879 C25.4273578,2.15234434 25.4507951,2.27473895 25.4560035,2.41015629 C25.4612118,2.54557364 25.4481911,2.66536411 25.416941,2.76953129 Z M23.260691,6.09765629 C23.3127746,6.03515598 23.4117319,5.98307317 23.557566,5.94140629 C23.7034,5.89973942 23.8544402,5.86588559 24.010691,5.83984379 C24.1669417,5.813802 24.3101695,5.79817715 24.4403785,5.79296879 C24.5705875,5.78776043 24.6461075,5.79036461 24.666941,5.80078129 C24.6773577,5.81119801 24.6513163,5.92057192 24.588816,6.12890629 C24.5263157,6.33724067 24.4481914,6.58202989 24.354441,6.86328129 C24.2606905,7.1445327 24.1617332,7.43359231 24.057566,7.73046879 C23.9533988,8.02734528 23.8752746,8.26953036 23.823191,8.45703129 C23.7711074,8.64453223 23.708608,8.85546762 23.635691,9.08984379 C23.5627739,9.32421997 23.4976704,9.55338434 23.4403785,9.77734379 C23.3830865,10.0013032 23.3440244,10.2122386 23.323191,10.4101563 C23.3023575,10.608074 23.3179824,10.7591141 23.370066,10.8632813 C23.4221496,10.9882819 23.4794407,11.0742186 23.541941,11.1210938 C23.6044413,11.167969 23.6721489,11.1914063 23.745066,11.1914063 C23.9534003,11.1914063 24.2164185,11.0768241 24.5341285,10.8476563 C24.8518384,10.6184885 25.1747518,10.3450537 25.5028785,10.0273438 C25.8310051,9.70963387 26.1356896,9.38672043 26.416941,9.05859379 C26.6981924,8.73046715 26.9065236,8.46744895 27.041941,8.26953129 C27.1252747,8.16536411 27.2112114,8.09765645 27.2997533,8.06640629 C27.3882956,8.03515614 27.4612115,8.04036442 27.5185035,8.08203129 C27.5757954,8.12369817 27.6070451,8.19140583 27.6122535,8.28515629 C27.6174618,8.37890676 27.583608,8.48828067 27.510691,8.61328129 C27.3440235,8.90494942 27.0992342,9.25130012 26.776316,9.65234379 C26.4533977,10.0533875 26.1096511,10.4388003 25.745066,10.8085938 C25.3804808,11.1783873 25.0237135,11.4934883 24.6747535,11.7539063 C24.3257934,12.0143243 24.0419421,12.1497396 23.823191,12.1601563 C23.6461067,12.170573 23.4716293,12.1419275 23.2997533,12.0742188 C23.1278776,12.0065101 22.9716292,11.9127611 22.8310035,11.7929688 C22.6903778,11.6731765 22.5731914,11.5325529 22.479441,11.3710938 C22.3856905,11.2096347 22.3336077,11.0403655 22.323191,10.8632813 C22.2919408,10.6028633 22.2919408,10.2460961 22.323191,9.79296879 C22.3544411,9.33984153 22.4117322,8.8763045 22.495066,8.40234379 C22.5783997,7.92838309 22.6851695,7.47786676 22.8153785,7.05078129 C22.9455875,6.62369583 23.0940235,6.30599067 23.260691,6.09765629 Z M31.010691,12.3632813 C30.7711064,12.3632813 30.5653793,12.3190109 30.3935035,12.2304688 C30.2216276,12.1419267 30.0836082,12.0247404 29.979441,11.8789063 C29.8752738,11.7330722 29.8075661,11.5638031 29.776316,11.3710938 C29.7450658,11.1783845 29.7554824,10.9726574 29.807566,10.7539063 C29.8388161,10.6080722 29.8908989,10.4127617 29.963816,10.1679688 C30.036733,9.9231759 30.1122531,9.65755356 30.1903785,9.37109379 C30.2685039,9.08463403 30.3414198,8.79817856 30.4091285,8.51171879 C30.4768371,8.22525903 30.5211075,7.96484497 30.541941,7.73046879 C30.5627744,7.49609262 30.5523578,7.30338622 30.510691,7.15234379 C30.4690241,7.00130137 30.3804833,6.92578129 30.245066,6.92578129 C30.0783985,6.92578129 29.9065252,6.98046825 29.729441,7.08984379 C29.5523567,7.19921934 29.372671,7.34765536 29.1903785,7.53515629 C29.0080859,7.72265723 28.825796,7.9388009 28.6435035,8.18359379 C28.4612109,8.42838668 28.2815252,8.68098833 28.104441,8.94140629 C28.0106905,9.29557473 27.9325663,9.60546747 27.870066,9.87109379 C27.8075657,10.1367201 27.7528787,10.3763011 27.7060035,10.5898438 C27.6591282,10.8033865 27.6148578,10.9908847 27.573191,11.1523438 C27.5315241,11.3138029 27.4950661,11.4674472 27.463816,11.6132813 C27.4325658,11.7174485 27.3388167,11.81901 27.182566,11.9179688 C27.0263152,12.0169276 26.8596502,12.097656 26.682566,12.1601563 C26.5054817,12.2226566 26.3518375,12.2539063 26.2216285,12.2539063 C26.0914195,12.2539063 26.0367325,12.2070318 26.057566,12.1132813 C26.0679827,12.050781 26.1018365,11.9101574 26.1591285,11.6914063 C26.2164204,11.4726552 26.2841281,11.2148453 26.3622535,10.9179688 C26.4403789,10.6210923 26.5211072,10.3059913 26.604441,9.97265629 C26.6877747,9.63932129 26.7658989,9.32161614 26.838816,9.01953129 C26.8908996,8.77994676 26.9481907,8.51432442 27.010691,8.22265629 C27.0627746,7.97265504 27.1278781,7.68099129 27.2060035,7.34765629 C27.2841289,7.01432129 27.3752738,6.64974161 27.479441,6.25390629 C27.552358,6.19140598 27.6278781,6.14192731 27.7060035,6.10546879 C27.7841289,6.06901028 27.8648572,6.04036473 27.948191,6.01953129 C28.0315247,5.98828114 28.1200655,5.96744801 28.213816,5.95703129 C28.2971497,5.95703129 28.3804822,5.96223958 28.463816,5.97265629 C28.536733,5.98307301 28.6122531,6.001302 28.6903785,6.02734379 C28.7685039,6.05338559 28.8388157,6.0924477 28.901316,6.14453129 C28.8700658,6.21744833 28.8336078,6.31900981 28.791941,6.44921879 C28.7502741,6.57942778 28.7086078,6.71744723 28.666941,6.86328129 C28.6252741,7.02994879 28.5731913,7.20182208 28.510691,7.37890629 C28.6461083,7.19140536 28.7997526,7.00130309 28.9716285,6.80859379 C29.1435043,6.6158845 29.3310025,6.44140708 29.5341285,6.28515629 C29.7372545,6.12890551 29.9533982,6.00130262 30.182566,5.90234379 C30.4117338,5.80338497 30.6461064,5.75390629 30.885691,5.75390629 C31.0836086,5.75390629 31.2606902,5.81119739 31.416941,5.92578129 C31.5731917,6.0403652 31.6955864,6.19921778 31.7841285,6.40234379 C31.8726706,6.60546981 31.9247534,6.84765489 31.9403785,7.12890629 C31.9560035,7.4101577 31.9169414,7.71744629 31.823191,8.05078129 L31.651316,8.73828129 C31.5992324,8.95703239 31.5341289,9.21484231 31.4560035,9.51171879 C31.3778781,9.80859528 31.2815249,10.1341129 31.166941,10.4882813 C31.1044407,10.7174491 31.0810034,10.9153638 31.0966285,11.0820313 C31.1122535,11.2486988 31.213815,11.3320313 31.401316,11.3320313 C31.5888169,11.3320313 31.8257937,11.2174491 32.1122535,10.9882813 C32.3987132,10.7591135 32.6877728,10.4830746 32.979441,10.1601563 C33.2711091,9.83723801 33.547148,9.50651215 33.807566,9.16796879 C34.0679839,8.82942543 34.2658986,8.55599067 34.401316,8.34765629 C34.4950664,8.21223895 34.5836072,8.12369817 34.666941,8.08203129 C34.7502747,8.04036442 34.8153782,8.03515614 34.8622535,8.06640629 C34.9091287,8.09765645 34.932566,8.16796825 34.932566,8.27734379 C34.932566,8.38671934 34.8908997,8.52473879 34.807566,8.69140629 C34.7346489,8.83724036 34.6226709,9.02994676 34.4716285,9.26953129 C34.320586,9.50911583 34.1409003,9.76432161 33.932566,10.0351563 C33.7242316,10.305991 33.5002755,10.5794257 33.260691,10.8554688 C33.0211064,11.1315118 32.7711089,11.3815093 32.510691,11.6054688 C32.250273,11.8294282 31.9924631,12.0117181 31.7372535,12.1523438 C31.4820439,12.2929695 31.2398588,12.3632813 31.010691,12.3632813 Z M37.885691,14.2070313 L37.6903785,15.1445313 C37.6122531,15.5195313 37.5237123,15.9153625 37.4247535,16.3320313 C37.3257946,16.7487 37.2112125,17.1627584 37.0810035,17.5742188 C36.9507945,17.9856792 36.8075667,18.3554672 36.651316,18.6835938 C36.4950652,19.0117204 36.3231919,19.2799469 36.135691,19.4882813 C35.94819,19.6966157 35.7398588,19.8007813 35.510691,19.8007813 C35.1669392,19.8007813 34.8726714,19.6992198 34.6278785,19.4960938 C34.3830856,19.2929678 34.1773585,19.037762 34.010691,18.7304688 C33.8440235,18.4231756 33.7216289,18.0924497 33.6435035,17.7382813 C33.5653781,17.3841129 33.526316,17.0559911 33.526316,16.7539063 C33.526316,16.3372375 33.5627739,15.9908868 33.635691,15.7148438 C33.708608,15.4388007 33.8362109,15.1757825 34.0185035,14.9257813 C34.200796,14.67578 34.4481894,14.4101577 34.760691,14.1289063 C35.0731925,13.8476549 35.4742302,13.4987 35.963816,13.0820313 C36.2034005,12.8736969 36.4325649,12.6757822 36.651316,12.4882813 C36.8700671,12.3007804 37.0783983,12.1289071 37.276316,11.9726563 C37.3283996,11.7643219 37.3778782,11.5690114 37.4247535,11.3867188 C37.4716287,11.2044262 37.5106908,11.0403654 37.541941,10.8945313 C37.2711063,11.2591165 36.9455887,11.566405 36.5653785,11.8164063 C36.1851682,12.0664075 35.7502767,12.1914063 35.260691,12.1914063 C34.8127721,12.1914063 34.4507965,11.9908875 34.1747535,11.5898438 C33.8987104,11.1888001 33.760691,10.5976602 33.760691,9.81640629 C33.760691,9.4309877 33.8336069,8.98828379 33.979441,8.48828129 C34.125275,7.98827879 34.3336063,7.51953129 34.604441,7.08203129 C34.8752757,6.64452911 35.2086057,6.27474114 35.604441,5.97265629 C36.0002763,5.67057145 36.4429802,5.51953129 36.932566,5.51953129 C37.1617338,5.51953129 37.3596485,5.57682239 37.526316,5.69140629 C37.6929835,5.8059902 37.8336071,5.94921793 37.948191,6.12109379 C38.0627749,6.29296965 38.1513157,6.4752595 38.213816,6.66796879 C38.2763163,6.86067809 38.3231908,7.04036379 38.354441,7.20703129 C38.3752744,7.14453098 38.3908992,7.07942747 38.401316,7.01171879 C38.4117327,6.94401012 38.4273575,6.88411489 38.448191,6.83203129 C38.5523582,6.47786286 38.6695445,6.23567778 38.7997535,6.10546879 C38.9299625,5.97525981 39.125273,5.91015629 39.385691,5.91015629 C39.531525,5.91015629 39.6539196,5.9361977 39.7528785,5.98828129 C39.8518373,6.04036489 39.901316,6.08723942 39.901316,6.12890629 C39.8492324,6.2434902 39.8075661,6.33203098 39.776316,6.39453129 C39.7450658,6.45703161 39.7138161,6.52213512 39.682566,6.58984379 C39.6513158,6.65755247 39.6200661,6.74348911 39.588816,6.84765629 C39.5575658,6.95182348 39.5158996,7.10286364 39.463816,7.30078129 C39.4429825,7.37369833 39.4039204,7.54296747 39.3466285,7.80859379 C39.2893365,8.07422012 39.2164206,8.38932114 39.1278785,8.75390629 C39.0393364,9.11849145 38.9455873,9.51953129 38.8466285,9.95703129 C38.7476696,10.3945335 38.6513164,10.8216125 38.557566,11.2382813 C38.8492341,11.0716138 39.1513144,10.8684908 39.463816,10.6289063 C39.7763175,10.3893218 40.0731896,10.1445325 40.354441,9.89453129 C40.6356924,9.64453004 40.8856899,9.40755325 41.104441,9.18359379 C41.3231921,8.95963434 41.4846488,8.77474036 41.588816,8.62890629 C41.6721497,8.50390567 41.7658988,8.41536489 41.870066,8.36328129 C41.9742332,8.3111977 42.0653781,8.29296872 42.1435035,8.30859379 C42.2216289,8.32421887 42.2685034,8.3710934 42.2841285,8.44921879 C42.2997535,8.52734418 42.2658997,8.63411395 42.182566,8.76953129 C41.9429814,9.15494989 41.6513177,9.527342 41.307566,9.88671879 C40.9638142,10.2460956 40.6122553,10.5794256 40.2528785,10.8867188 C39.8935017,11.194012 39.5445468,11.4648426 39.2060035,11.6992188 C38.8674601,11.933595 38.5784005,12.1236972 38.338816,12.2695313 C38.2346488,12.7382836 38.146108,13.1184882 38.073191,13.4101563 C38.0002739,13.7018244 37.9377746,13.9674468 37.885691,14.2070313 Z M35.916941,11.1289063 C36.1356921,11.1289063 36.3414192,11.0716152 36.5341285,10.9570313 C36.7268378,10.8424474 36.9013152,10.7096362 37.057566,10.5585938 C37.2138167,10.4075514 37.3440238,10.2539071 37.448191,10.0976563 C37.5523582,9.94140551 37.6304824,9.81640676 37.682566,9.72265629 C37.7242328,9.62890583 37.7737115,9.50390708 37.8310035,9.34765629 C37.8882954,9.19140551 37.9325658,9.04036536 37.963816,8.89453129 C37.9950661,8.74869723 38.0080868,8.6184902 38.0028785,8.50390629 C37.9976701,8.38932239 37.958608,8.32682301 37.885691,8.31640629 C37.8231907,8.30598958 37.773712,8.26432333 37.7372535,8.19140629 C37.700795,8.11848926 37.6721494,8.03515676 37.651316,7.94140629 C37.6304825,7.84765583 37.6174618,7.75390676 37.6122535,7.66015629 C37.6070451,7.56640583 37.5992327,7.48307333 37.588816,7.41015629 C37.5367324,7.04557114 37.448191,6.77994879 37.323191,6.61328129 C37.1981903,6.44661379 37.0575667,6.36328129 36.901316,6.36328129 C36.640898,6.36328129 36.3935046,6.46744692 36.1591285,6.67578129 C35.9247523,6.88411567 35.716421,7.15234215 35.5341285,7.48046879 C35.3518359,7.80859543 35.2086082,8.16796684 35.104441,8.55859379 C35.0002738,8.94922075 34.948191,9.32161286 34.948191,9.67578129 C34.948191,10.1132835 35.0106903,10.4648425 35.135691,10.7304688 C35.2606916,10.9960951 35.5211057,11.1289063 35.916941,11.1289063 Z M35.198191,18.3789063 C35.4065253,18.3789063 35.5757945,18.225262 35.7060035,17.9179688 C35.8362125,17.6106756 35.9742319,17.191409 36.120066,16.6601563 C36.151316,16.5351557 36.1955865,16.35547 36.2528785,16.1210938 C36.3101704,15.8867176 36.3778781,15.6184911 36.4560035,15.3164063 C36.5341289,15.0143215 36.6148572,14.6888039 36.698191,14.3398438 C36.7815247,13.9908837 36.8700655,13.6393247 36.963816,13.2851563 C36.8804822,13.3580733 36.7945456,13.4335934 36.7060035,13.5117188 C36.6174614,13.5898442 36.5263164,13.6809891 36.432566,13.7851563 C36.2033982,14.0039074 35.9820462,14.2148428 35.7685035,14.4179688 C35.5549607,14.6210948 35.3648585,14.8346343 35.198191,15.0585938 C35.0315235,15.2825532 34.8987123,15.5247383 34.7997535,15.7851563 C34.7007946,16.0455743 34.651316,16.3476546 34.651316,16.6914063 C34.651316,17.035158 34.6643367,17.3164052 34.6903785,17.5351563 C34.7164203,17.7539074 34.7528782,17.9257807 34.7997535,18.0507813 C34.8466287,18.1757819 34.9039198,18.2617186 34.9716285,18.3085938 C35.0393371,18.355469 35.1148572,18.3789063 35.198191,18.3789063 Z M53.963816,10.5039063 C53.9013157,11.2018265 53.6929844,11.8268202 53.338816,12.3789063 C52.9846475,12.9309924 52.5341312,13.3971336 51.9872535,13.7773438 C51.4403757,14.157554 50.8231944,14.4466136 50.135691,14.6445313 C49.4481875,14.842449 48.7398613,14.9414063 48.010691,14.9414063 C47.7398563,14.9414063 47.4872546,14.9231773 47.2528785,14.8867188 C47.0185023,14.8502603 46.8075669,14.8059899 46.620066,14.7539063 C46.432565,14.7018227 46.2737125,14.652344 46.1435035,14.6054688 C46.0132945,14.5585936 45.9221496,14.5195315 45.870066,14.4882813 C45.7763155,14.4361977 45.7007954,14.3710942 45.6435035,14.2929688 C45.5862115,14.2148434 45.5523577,14.1028654 45.541941,13.9570313 C45.5315242,13.8736975 45.526316,13.808594 45.526316,13.7617188 C45.526316,13.7148436 45.5315242,13.6653649 45.541941,13.6132813 C45.5523577,13.5611977 45.5705867,13.4908859 45.5966285,13.4023438 C45.6226703,13.3138017 45.6565241,13.1914071 45.698191,13.0351563 C45.7190244,12.9414058 45.7997528,12.6471379 45.9403785,12.1523438 C46.0810042,11.6575497 46.2502733,11.053389 46.448191,10.3398438 C46.6461086,9.62629856 46.8622523,8.85286879 47.0966285,8.01953129 C47.3310046,7.18619379 47.5575649,6.3789102 47.776316,5.59765629 C47.9950671,4.81640239 48.1929817,4.11068028 48.370066,3.48046879 C48.5471502,2.85025731 48.6773572,2.38411614 48.760691,2.08203129 C48.6148569,2.18619848 48.4716292,2.29557239 48.3310035,2.41015629 C48.1903778,2.5247402 48.04715,2.64973895 47.901316,2.78515629 C47.7450652,2.93099036 47.5914209,2.98046903 47.4403785,2.93359379 C47.289336,2.88671856 47.1825663,2.75911567 47.120066,2.55078129 C47.0992325,2.44661411 47.0836077,2.3372402 47.073191,2.22265629 C47.0627742,2.12890583 47.0653784,2.02213606 47.0810035,1.90234379 C47.0966285,1.78255153 47.1356907,1.6653652 47.198191,1.55078129 C47.5419427,1.34244692 47.8778768,1.16536536 48.2060035,1.01953129 C48.5341301,0.873697231 48.8492311,0.7434902 49.151316,0.628906294 C49.2138163,0.451822075 49.2841281,0.316406763 49.3622535,0.222656294 C49.4403789,0.128905825 49.5211072,0.0664064502 49.604441,0.0351562939 C49.6877747,0.0039061377 49.7763155,-0.0065104248 49.870066,0.00390629395 C49.9638164,0.0143230127 50.0627738,0.0299478564 50.166941,0.0507812939 C50.3961088,0.102864888 50.5471489,0.175780825 50.620066,0.269531294 C50.7659,0.248697856 50.9065236,0.233073013 51.041941,0.222656294 C51.1773583,0.212239575 51.3179819,0.207031294 51.463816,0.207031294 C52.0679857,0.207031294 52.5940221,0.285155513 53.041941,0.441406294 C53.4898599,0.597657075 53.8570437,0.808592466 54.1435035,1.07421879 C54.4299632,1.33984512 54.6356903,1.64973786 54.760691,2.00390629 C54.8856916,2.35807473 54.9325661,2.73307098 54.901316,3.12890629 C54.8700658,3.47265801 54.7789209,3.82942528 54.6278785,4.19921879 C54.476836,4.56901231 54.2763172,4.933592 54.026316,5.29296879 C53.7763147,5.65234559 53.484651,6.00130043 53.151316,6.33984379 C52.817981,6.67838715 52.448193,6.98827989 52.041941,7.26953129 C52.3648592,7.45703223 52.6513147,7.67578004 52.901316,7.92578129 C53.1513172,8.17578254 53.3596485,8.44661317 53.526316,8.73828129 C53.6929835,9.02994942 53.8127739,9.32682145 53.885691,9.62890629 C53.958608,9.93099114 53.9846494,10.2226549 53.963816,10.5039063 Z M48.791941,6.67578129 C48.7711075,6.77994848 48.7476703,6.88411411 48.7216285,6.98828129 C48.6955867,7.09244848 48.6669411,7.20182239 48.635691,7.31640629 C48.7606916,7.18098895 48.971627,7.0559902 49.2685035,6.94140629 C49.56538,6.82682239 49.8492313,6.76953129 50.120066,6.76953129 C50.2659,6.76953129 50.4065236,6.77734372 50.541941,6.79296879 C50.6773583,6.80859387 50.8075653,6.82682286 50.932566,6.84765629 C51.2242341,6.66015536 51.5054813,6.41797028 51.776316,6.12109379 C52.0471507,5.82421731 52.2841275,5.50651215 52.4872535,5.16796879 C52.6903795,4.82942543 52.8570445,4.48307473 52.9872535,4.12890629 C53.1174625,3.77473786 53.1981908,3.44661614 53.229441,3.14453129 C53.2919413,2.4257777 53.1695467,1.89192887 52.8622535,1.54296879 C52.5549603,1.19400872 52.1200688,1.01953129 51.557566,1.01953129 C51.1825641,1.01953129 50.791943,1.08723895 50.385691,1.22265629 C50.3023572,1.49349098 50.1981916,1.82942512 50.073191,2.23046879 C49.9481903,2.63151247 49.8153792,3.07161223 49.6747535,3.55078129 C49.5341278,4.02995036 49.3856917,4.53515364 49.229441,5.06640629 C49.0731902,5.59765895 48.9273583,6.13411192 48.791941,6.67578129 Z M48.526316,7.70703129 C48.3804819,8.26953411 48.23465,8.87890301 48.088816,9.53515629 C47.9533986,10.0976591 47.8075667,10.7512984 47.651316,11.4960938 C47.4950652,12.2408892 47.3284002,13.0351521 47.151316,13.8789063 C47.2138163,13.9309899 47.2971488,13.9674479 47.401316,13.9882813 L47.713816,14.0507813 C47.8283999,14.0716147 47.9533986,14.0820313 48.088816,14.0820313 C48.5575683,14.0820313 49.034126,13.9856781 49.5185035,13.7929688 C50.0028809,13.6002595 50.4481889,13.3268247 50.854441,12.9726563 C51.260693,12.6184879 51.6018354,12.1888047 51.8778785,11.6835938 C52.1539215,11.1783829 52.3179824,10.6132844 52.370066,9.98828129 C52.3908994,9.70703129 52.3726704,9.45442825 52.3153785,9.23046879 C52.2580865,9.00650934 52.174754,8.80338637 52.0653785,8.62109379 C51.9560029,8.43880122 51.8310042,8.2773445 51.6903785,8.13671879 C51.5497528,7.99609309 51.4013167,7.87369848 51.245066,7.76953129 C50.7658969,8.02994926 50.2398605,8.24869708 49.666941,8.42578129 C49.47944,8.47786489 49.3179833,8.48567731 49.182566,8.44921879 C49.0471486,8.41276028 48.9325664,8.35546918 48.838816,8.27734379 C48.7450655,8.1992184 48.6721496,8.10807348 48.620066,8.00390629 C48.5679824,7.89973911 48.5367327,7.80078176 48.526316,7.70703129 Z M57.260691,12.2226563 C56.8648557,12.2226563 56.5419422,12.1601569 56.291941,12.0351563 C56.0419397,11.9101557 55.8466292,11.7565114 55.7060035,11.5742188 C55.5653778,11.3919262 55.4664204,11.1940115 55.4091285,10.9804688 C55.3518365,10.7669261 55.323191,10.5716155 55.323191,10.3945313 C55.323191,10.0820297 55.3492324,9.75130387 55.401316,9.40234379 C55.4533996,9.05338372 55.5158989,8.73047028 55.588816,8.43359379 C55.661733,8.13671731 55.7268365,7.88411567 55.7841285,7.67578129 C55.8414204,7.46744692 55.8804825,7.33723989 55.901316,7.28515629 C55.9950664,6.98307145 56.117461,6.72005325 56.2685035,6.49609379 C56.4195459,6.27213434 56.6304813,6.11849004 56.901316,6.03515629 C57.0054832,6.01432286 57.1148571,5.99348973 57.229441,5.97265629 C57.323191,5.96223958 57.4195446,5.95703129 57.5185035,5.95703129 C57.6174623,5.95703129 57.7086072,5.97265614 57.791941,6.00390629 C57.5106896,6.72265989 57.2893376,7.32161223 57.1278785,7.80078129 C56.9664193,8.27995036 56.8440247,8.67057145 56.760691,8.97265629 C56.6669405,9.31640801 56.6096494,9.59244692 56.588816,9.80078129 C56.5367324,10.2695336 56.5783986,10.6236968 56.713816,10.8632813 C56.8492333,11.1028658 57.1252722,11.2226563 57.541941,11.2226563 C57.8127757,11.2226563 58.0731897,11.1210948 58.323191,10.9179688 C58.5731922,10.7148428 58.8023566,10.4518246 59.010691,10.1289063 C58.9794408,9.96223879 58.963816,9.79036551 58.963816,9.61328129 C58.963816,9.27994629 58.9924615,8.95442872 59.0497535,8.63671879 C59.1070454,8.31900887 59.1747531,8.02213684 59.2528785,7.74609379 C59.3310039,7.47005075 59.4143364,7.22265739 59.5028785,7.00390629 C59.5914206,6.7851552 59.6669407,6.61328192 59.729441,6.48828129 C59.8440249,6.23828004 59.9481905,6.08463575 60.041941,6.02734379 C60.1356914,5.97005184 60.2867316,5.93619801 60.495066,5.92578129 C60.5783997,5.91536461 60.6487115,5.91276043 60.7060035,5.91796879 C60.7632954,5.92317715 60.8127741,5.93098958 60.854441,5.94140629 C60.9794416,5.97265645 61.041941,6.03515583 61.041941,6.12890629 C61.041941,6.29557379 61.0315244,6.54557129 61.010691,6.87890629 C60.9898575,7.21224129 60.9273582,7.55598786 60.823191,7.91015629 C60.7502739,8.20182442 60.6799621,8.44921778 60.6122535,8.65234379 C60.5445448,8.85546981 60.4794413,9.02734309 60.416941,9.16796879 C60.3544407,9.3085945 60.2919413,9.42317668 60.229441,9.51171879 C60.1669407,9.6002609 60.1096496,9.68098926 60.057566,9.75390629 C60.0783994,10.0664079 60.1044408,10.3164054 60.135691,10.5039063 C60.1669411,10.6914072 60.2060032,10.834635 60.2528785,10.9335938 C60.2997537,11.0325526 60.3570448,11.1002603 60.4247535,11.1367188 C60.4924621,11.1731773 60.5679822,11.1914063 60.651316,11.1914063 C60.79715,11.1914063 60.9690233,11.1210945 61.166941,10.9804688 C61.3648586,10.8398431 61.5705857,10.6627615 61.7841285,10.4492188 C61.9976712,10.2356761 62.2112107,10.0013034 62.4247535,9.74609379 C62.6382962,9.49088418 62.8336067,9.24869911 63.010691,9.01953129 C63.1877752,8.79036348 63.3388153,8.58984465 63.463816,8.41796879 C63.5888166,8.24609293 63.6669408,8.13932317 63.698191,8.09765629 C63.771108,8.00390583 63.8414198,7.94661473 63.9091285,7.92578129 C63.9768371,7.90494786 64.0315241,7.91276028 64.073191,7.94921879 C64.1148578,7.98567731 64.1382951,8.0429684 64.1435035,8.12109379 C64.1487118,8.19921918 64.1252746,8.28515583 64.073191,8.37890629 C63.8648566,8.77474161 63.6070467,9.19400825 63.2997535,9.63671879 C62.9924603,10.0794293 62.6643385,10.4882794 62.3153785,10.8632813 C61.9664184,11.2382832 61.6148594,11.55078 61.260691,11.8007813 C60.9065225,12.0507825 60.5731925,12.1757813 60.260691,12.1757813 C59.9794396,12.1757813 59.7580876,12.0794281 59.5966285,11.8867188 C59.4351693,11.6940095 59.2971499,11.4153646 59.182566,11.0507813 C58.9429814,11.4257832 58.6617342,11.7148428 58.338816,11.9179688 C58.0158977,12.1210948 57.6565263,12.2226563 57.260691,12.2226563 Z M67.791941,8.98828129 C67.7398574,9.31119958 67.6903787,9.61848817 67.6435035,9.91015629 C67.5966282,10.2018244 67.5679827,10.4361971 67.557566,10.6132813 C67.5471492,10.8736993 67.5940238,11.0611974 67.698191,11.1757813 C67.8023582,11.2903652 67.9169403,11.3476563 68.041941,11.3476563 C68.187775,11.3476563 68.3674607,11.2747404 68.5810035,11.1289063 C68.7945462,10.9830722 69.0211064,10.8007813 69.260691,10.5820313 C69.5002755,10.3632802 69.7398564,10.1236993 69.979441,9.86328129 C70.2190255,9.60286333 70.4403775,9.35546997 70.6435035,9.12109379 C70.8466295,8.88671762 71.0185028,8.68099051 71.1591285,8.50390629 C71.2997542,8.32682208 71.3961074,8.21223989 71.448191,8.16015629 C71.5106913,8.09765598 71.5757948,8.06119801 71.6435035,8.05078129 C71.7112121,8.04036458 71.7658991,8.05078114 71.807566,8.08203129 C71.8492328,8.11328145 71.870066,8.17057254 71.870066,8.25390629 C71.870066,8.33724004 71.8283997,8.44140567 71.745066,8.56640629 C71.6200653,8.76432395 71.4586086,8.99609247 71.260691,9.26171879 C71.0627733,9.52734512 70.8440255,9.80078129 70.604441,10.0820313 C70.3648564,10.3632827 70.1122548,10.6393216 69.8466285,10.9101563 C69.5810021,11.180991 69.3153798,11.4205719 69.0497535,11.6289063 C68.7841271,11.8372407 68.5289214,12.0065098 68.2841285,12.1367188 C68.0393356,12.2669278 67.8179836,12.3320313 67.620066,12.3320313 C67.4742319,12.3320313 67.3362125,12.290365 67.2060035,12.2070313 C67.0757945,12.1236975 66.9586082,12.0143236 66.854441,11.8789063 C66.7502738,11.743489 66.6695454,11.5924488 66.6122535,11.4257813 C66.5549615,11.2591138 66.5315242,11.0924488 66.541941,10.9257813 C66.5523577,10.8528643 66.5679825,10.7278655 66.588816,10.5507813 C66.1513138,11.0403671 65.711214,11.428384 65.2685035,11.7148438 C64.8257929,12.0013036 64.401318,12.1445313 63.995066,12.1445313 C63.8492319,12.1445313 63.6929835,12.1080733 63.526316,12.0351563 C63.3596485,11.9622393 63.2112125,11.8424488 63.0810035,11.6757813 C62.9507945,11.5091138 62.8440247,11.290366 62.760691,11.0195313 C62.6773572,10.7486966 62.6461075,10.4205749 62.666941,10.0351563 C62.6981911,9.43098661 62.8179816,8.85807567 63.026316,8.31640629 C63.2346503,7.77473692 63.4976685,7.30338747 63.8153785,6.90234379 C64.1330884,6.50130012 64.4924598,6.18359497 64.8935035,5.94921879 C65.2945471,5.71484262 65.6981889,5.59765629 66.104441,5.59765629 C66.2815252,5.59765629 66.4429819,5.64192668 66.588816,5.73046879 C66.73465,5.8190109 66.8596488,5.93359309 66.963816,6.07421879 C67.0679832,6.2148445 67.1539198,6.36848879 67.2216285,6.53515629 C67.2893371,6.70182379 67.3388158,6.85807223 67.370066,7.00390629 C67.442983,6.70182145 67.5106907,6.40494942 67.573191,6.11328129 C67.6356913,5.82161317 67.6981907,5.54557426 67.760691,5.28515629 C67.8648582,4.8997377 67.9742321,4.4830752 68.088816,4.03515629 C68.1929832,3.6497377 68.3127736,3.20703379 68.448191,2.70703129 C68.5836083,2.20702879 68.7346485,1.68099239 68.901316,1.12890629 C69.0054832,1.04557254 69.1044405,0.983073169 69.198191,0.941406294 C69.2919414,0.899739419 69.3804822,0.868489731 69.463816,0.847656294 C69.5575664,0.816406138 69.6461072,0.800781294 69.729441,0.800781294 C69.8336082,0.800781294 69.9273572,0.813801997 70.010691,0.839843794 C70.0940247,0.865885591 70.1643365,0.933593247 70.2216285,1.04296879 C70.2789204,1.15234434 70.3179825,1.3164052 70.338816,1.53515629 C70.3596494,1.75390739 70.3596494,2.05077942 70.338816,2.42578129 C70.3179825,2.88411692 70.2372542,3.38411192 70.0966285,3.92578129 C69.9560028,4.46745067 69.7711088,5.0273409 69.541941,5.60546879 C69.3127732,6.18359668 69.049755,6.7617159 68.7528785,7.33984379 C68.456002,7.91797168 68.1356927,8.46744536 67.791941,8.98828129 Z M66.870066,9.19140629 C66.9117328,8.99348864 66.950795,8.79557395 66.9872535,8.59765629 C67.023712,8.39973864 67.0679824,8.19661567 67.120066,7.98828129 C67.0992325,7.99869801 67.0810035,8.00911458 67.0653785,8.01953129 C67.0497534,8.02994801 67.0315244,8.04036458 67.010691,8.05078129 C66.8961071,8.10286489 66.8179828,8.10026075 66.776316,8.04296879 C66.7346491,7.98567684 66.713816,7.89453192 66.713816,7.76953129 C66.713816,7.70703098 66.7086077,7.59505293 66.698191,7.43359379 C66.6877742,7.27213465 66.6591287,7.10546965 66.6122535,6.93359379 C66.5653782,6.76171793 66.4950664,6.61067778 66.401316,6.48046879 C66.3075655,6.35025981 66.1773585,6.28515629 66.010691,6.28515629 C65.7711064,6.28515629 65.5263172,6.4075509 65.276316,6.65234379 C65.0263147,6.89713668 64.7919421,7.19400872 64.573191,7.54296879 C64.3544399,7.89192887 64.17215,8.26432098 64.026316,8.66015629 C63.8804819,9.05599161 63.7971494,9.41015473 63.776316,9.72265629 C63.7554825,10.2226588 63.8179819,10.5820302 63.963816,10.8007813 C64.10965,11.0195324 64.3075647,11.1289063 64.557566,11.1289063 C64.7450669,11.1289063 64.950794,11.0559904 65.1747535,10.9101563 C65.3987129,10.7643222 65.6174607,10.5872407 65.8310035,10.3789063 C66.0445462,10.1705719 66.2424609,9.95703239 66.4247535,9.73828129 C66.607046,9.5195302 66.7554821,9.33724036 66.870066,9.19140629 Z M75.526316,8.98828129 C75.4742324,9.31119958 75.4247537,9.61848817 75.3778785,9.91015629 C75.3310032,10.2018244 75.3023577,10.4361971 75.291941,10.6132813 C75.2815242,10.8736993 75.3283988,11.0611974 75.432566,11.1757813 C75.5367332,11.2903652 75.6513153,11.3476563 75.776316,11.3476563 C75.92215,11.3476563 76.1018357,11.2747404 76.3153785,11.1289063 C76.5289212,10.9830722 76.7554814,10.8007813 76.995066,10.5820313 C77.2346505,10.3632802 77.4742314,10.1236993 77.713816,9.86328129 C77.9534005,9.60286333 78.1747525,9.35546997 78.3778785,9.12109379 C78.5810045,8.88671762 78.7528778,8.68099051 78.8935035,8.50390629 C79.0341292,8.32682208 79.1304824,8.21223989 79.182566,8.16015629 C79.2450663,8.09765598 79.3101698,8.06119801 79.3778785,8.05078129 C79.4455871,8.04036458 79.5002741,8.05078114 79.541941,8.08203129 C79.5836078,8.11328145 79.604441,8.17057254 79.604441,8.25390629 C79.604441,8.33724004 79.5627747,8.44140567 79.479441,8.56640629 C79.3544403,8.76432395 79.1929836,8.99609247 78.995066,9.26171879 C78.7971483,9.52734512 78.5784005,9.80078129 78.338816,10.0820313 C78.0992314,10.3632827 77.8466298,10.6393216 77.5810035,10.9101563 C77.3153771,11.180991 77.0497548,11.4205719 76.7841285,11.6289063 C76.5185021,11.8372407 76.2632964,12.0065098 76.0185035,12.1367188 C75.7737106,12.2669278 75.5523586,12.3320313 75.354441,12.3320313 C75.2086069,12.3320313 75.0705875,12.290365 74.9403785,12.2070313 C74.8101695,12.1236975 74.6929832,12.0143236 74.588816,11.8789063 C74.4846488,11.743489 74.4039204,11.5924488 74.3466285,11.4257813 C74.2893365,11.2591138 74.2658992,11.0924488 74.276316,10.9257813 C74.2867327,10.8528643 74.3023575,10.7278655 74.323191,10.5507813 C73.8856888,11.0403671 73.445589,11.428384 73.0028785,11.7148438 C72.5601679,12.0013036 72.135693,12.1445313 71.729441,12.1445313 C71.5836069,12.1445313 71.4273585,12.1080733 71.260691,12.0351563 C71.0940235,11.9622393 70.9455875,11.8424488 70.8153785,11.6757813 C70.6851695,11.5091138 70.5783997,11.290366 70.495066,11.0195313 C70.4117322,10.7486966 70.3804825,10.4205749 70.401316,10.0351563 C70.4325661,9.43098661 70.5523566,8.85807567 70.760691,8.31640629 C70.9690253,7.77473692 71.2320435,7.30338747 71.5497535,6.90234379 C71.8674634,6.50130012 72.2268348,6.18359497 72.6278785,5.94921879 C73.0289221,5.71484262 73.4325639,5.59765629 73.838816,5.59765629 C74.0159002,5.59765629 74.1773569,5.64192668 74.323191,5.73046879 C74.469025,5.8190109 74.5940238,5.93359309 74.698191,6.07421879 C74.8023582,6.2148445 74.8882948,6.36848879 74.9560035,6.53515629 C75.0237121,6.70182379 75.0731908,6.85807223 75.104441,7.00390629 C75.177358,6.70182145 75.2450657,6.40494942 75.307566,6.11328129 C75.3700663,5.82161317 75.4325657,5.54557426 75.495066,5.28515629 C75.5992332,4.8997377 75.7086071,4.4830752 75.823191,4.03515629 C75.9273582,3.6497377 76.0471486,3.20703379 76.182566,2.70703129 C76.3179833,2.20702879 76.4690235,1.68099239 76.635691,1.12890629 C76.7398582,1.04557254 76.8388155,0.983073169 76.932566,0.941406294 C77.0263164,0.899739419 77.1148572,0.868489731 77.198191,0.847656294 C77.2919414,0.816406138 77.3804822,0.800781294 77.463816,0.800781294 C77.5679832,0.800781294 77.6617322,0.813801997 77.745066,0.839843794 C77.8283997,0.865885591 77.8987115,0.933593247 77.9560035,1.04296879 C78.0132954,1.15234434 78.0523575,1.3164052 78.073191,1.53515629 C78.0940244,1.75390739 78.0940244,2.05077942 78.073191,2.42578129 C78.0523575,2.88411692 77.9716292,3.38411192 77.8310035,3.92578129 C77.6903778,4.46745067 77.5054838,5.0273409 77.276316,5.60546879 C77.0471482,6.18359668 76.78413,6.7617159 76.4872535,7.33984379 C76.190377,7.91797168 75.8700677,8.46744536 75.526316,8.98828129 Z M74.604441,9.19140629 C74.6461078,8.99348864 74.68517,8.79557395 74.7216285,8.59765629 C74.758087,8.39973864 74.8023574,8.19661567 74.854441,7.98828129 C74.8336075,7.99869801 74.8153785,8.00911458 74.7997535,8.01953129 C74.7841284,8.02994801 74.7658994,8.04036458 74.745066,8.05078129 C74.6304821,8.10286489 74.5523578,8.10026075 74.510691,8.04296879 C74.4690241,7.98567684 74.448191,7.89453192 74.448191,7.76953129 C74.448191,7.70703098 74.4429827,7.59505293 74.432566,7.43359379 C74.4221492,7.27213465 74.3935037,7.10546965 74.3466285,6.93359379 C74.2997532,6.76171793 74.2294414,6.61067778 74.135691,6.48046879 C74.0419405,6.35025981 73.9117335,6.28515629 73.745066,6.28515629 C73.5054814,6.28515629 73.2606922,6.4075509 73.010691,6.65234379 C72.7606897,6.89713668 72.5263171,7.19400872 72.307566,7.54296879 C72.0888149,7.89192887 71.906525,8.26432098 71.760691,8.66015629 C71.6148569,9.05599161 71.5315244,9.41015473 71.510691,9.72265629 C71.4898575,10.2226588 71.5523569,10.5820302 71.698191,10.8007813 C71.844025,11.0195324 72.0419397,11.1289063 72.291941,11.1289063 C72.4794419,11.1289063 72.685169,11.0559904 72.9091285,10.9101563 C73.1330879,10.7643222 73.3518357,10.5872407 73.5653785,10.3789063 C73.7789212,10.1705719 73.9768359,9.95703239 74.1591285,9.73828129 C74.341421,9.5195302 74.4898571,9.33724036 74.604441,9.19140629 Z M81.729441,2.76953129 C81.6981908,2.8841152 81.6382956,2.99609325 81.5497535,3.10546879 C81.4612114,3.21484434 81.362254,3.30338512 81.2528785,3.37109379 C81.1435029,3.43880247 81.0315249,3.48307286 80.916941,3.50390629 C80.8023571,3.52473973 80.708608,3.50390661 80.635691,3.44140629 C80.4169399,3.27473879 80.3023577,3.09505309 80.291941,2.90234379 C80.2815242,2.7096345 80.3283988,2.52734465 80.432566,2.35546879 C80.5367332,2.18359293 80.6669402,2.03776106 80.823191,1.91796879 C80.9794417,1.79817653 81.1148571,1.72786473 81.229441,1.70703129 C81.3440249,1.68619786 81.4403781,1.70963512 81.5185035,1.77734379 C81.5966289,1.84505247 81.6565241,1.93359325 81.698191,2.04296879 C81.7398578,2.15234434 81.7632951,2.27473895 81.7685035,2.41015629 C81.7737118,2.54557364 81.7606911,2.66536411 81.729441,2.76953129 Z M79.573191,6.09765629 C79.6252746,6.03515598 79.7242319,5.98307317 79.870066,5.94140629 C80.0159,5.89973942 80.1669402,5.86588559 80.323191,5.83984379 C80.4794417,5.813802 80.6226695,5.79817715 80.7528785,5.79296879 C80.8830875,5.78776043 80.9586075,5.79036461 80.979441,5.80078129 C80.9898577,5.81119801 80.9638163,5.92057192 80.901316,6.12890629 C80.8388157,6.33724067 80.7606914,6.58202989 80.666941,6.86328129 C80.5731905,7.1445327 80.4742332,7.43359231 80.370066,7.73046879 C80.2658988,8.02734528 80.1877746,8.26953036 80.135691,8.45703129 C80.0836074,8.64453223 80.021108,8.85546762 79.948191,9.08984379 C79.8752739,9.32421997 79.8101704,9.55338434 79.7528785,9.77734379 C79.6955865,10.0013032 79.6565244,10.2122386 79.635691,10.4101563 C79.6148575,10.608074 79.6304824,10.7591141 79.682566,10.8632813 C79.7346496,10.9882819 79.7919407,11.0742186 79.854441,11.1210938 C79.9169413,11.167969 79.9846489,11.1914063 80.057566,11.1914063 C80.2659003,11.1914063 80.5289185,11.0768241 80.8466285,10.8476563 C81.1643384,10.6184885 81.4872518,10.3450537 81.8153785,10.0273438 C82.1435051,9.70963387 82.4481896,9.38672043 82.729441,9.05859379 C83.0106924,8.73046715 83.2190236,8.46744895 83.354441,8.26953129 C83.4377747,8.16536411 83.5237114,8.09765645 83.6122533,8.06640629 C83.7007956,8.03515614 83.7737115,8.04036442 83.8310035,8.08203129 C83.8882954,8.12369817 83.9195451,8.19140583 83.9247535,8.28515629 C83.9299618,8.37890676 83.896108,8.48828067 83.823191,8.61328129 C83.6565235,8.90494942 83.4117342,9.25130012 83.088816,9.65234379 C82.7658977,10.0533875 82.4221511,10.4388003 82.057566,10.8085938 C81.6929808,11.1783873 81.3362135,11.4934883 80.9872535,11.7539063 C80.6382934,12.0143243 80.3544421,12.1497396 80.135691,12.1601563 C79.9586067,12.170573 79.7841293,12.1419275 79.6122533,12.0742188 C79.4403776,12.0065101 79.2841292,11.9127611 79.1435035,11.7929688 C79.0028778,11.6731765 78.8856914,11.5325529 78.791941,11.3710938 C78.6981905,11.2096347 78.6461077,11.0403655 78.635691,10.8632813 C78.6044408,10.6028633 78.6044408,10.2460961 78.635691,9.79296879 C78.6669411,9.33984153 78.7242322,8.8763045 78.807566,8.40234379 C78.8908997,7.92838309 78.9976695,7.47786676 79.1278785,7.05078129 C79.2580875,6.62369583 79.4065235,6.30599067 79.573191,6.09765629 Z M89.760691,8.72265629 C89.4481894,9.18099192 89.0940263,9.62629997 88.698191,10.0585938 C88.3023557,10.4908876 87.883089,10.8763004 87.4403785,11.2148438 C86.9976679,11.5533872 86.5445475,11.8268219 86.0810035,12.0351563 C85.6174595,12.2434907 85.1669432,12.3476563 84.729441,12.3476563 C84.5002732,12.3476563 84.2528798,12.2929693 83.9872535,12.1835938 C83.7216271,12.0742182 83.4794421,11.9049491 83.260691,11.6757813 C83.0419399,11.4466135 82.8674625,11.1497415 82.7372535,10.7851563 C82.6070445,10.4205711 82.5679824,9.97786723 82.620066,9.45703129 C82.6617328,9.02994583 82.794544,8.5794295 83.0185035,8.10546879 C83.2424629,7.63150809 83.5185018,7.19661661 83.8466285,6.80078129 C84.1747551,6.40494598 84.5445431,6.07682426 84.9560035,5.81640629 C85.3674639,5.55598833 85.7815222,5.42578129 86.198191,5.42578129 C86.5940263,5.42578129 86.8804817,5.52473864 87.057566,5.72265629 C87.2346502,5.92057395 87.3127744,6.16536317 87.291941,6.45703129 C87.2606908,6.77994958 87.1695459,7.07682161 87.0185035,7.34765629 C86.867461,7.61849098 86.6877753,7.8632802 86.479441,8.08203129 C86.2711066,8.30078239 86.0497546,8.49869708 85.8153785,8.67578129 C85.5810023,8.85286551 85.3596503,9.01432223 85.151316,9.16015629 C84.9221482,9.31640708 84.7034003,9.46484309 84.495066,9.60546879 C84.2867316,9.7460945 84.1044417,9.87369739 83.948191,9.98828129 C83.9586077,10.2486993 84.0054822,10.4674471 84.088816,10.6445313 C84.1721497,10.8216155 84.2763153,10.9648432 84.401316,11.0742188 C84.5263166,11.1835943 84.6695443,11.2617186 84.8310035,11.3085938 C84.9924626,11.355469 85.1565235,11.3789063 85.323191,11.3789063 C85.6773594,11.3789063 86.0471474,11.2669282 86.432566,11.0429688 C86.8179846,10.8190093 87.195585,10.5481787 87.5653785,10.2304688 C87.935172,9.91275887 88.2789185,9.58203301 88.5966285,9.23828129 C88.9143384,8.89452958 89.1773566,8.59765754 89.385691,8.34765629 C89.458608,8.26432254 89.5341281,8.21484387 89.6122535,8.19921879 C89.6903789,8.18359372 89.7528782,8.19401028 89.7997535,8.23046879 C89.8466287,8.26692731 89.870066,8.32942668 89.870066,8.41796879 C89.870066,8.5065109 89.833608,8.60807239 89.760691,8.72265629 Z M85.760691,6.31640629 C85.6356903,6.31640629 85.4872543,6.37890567 85.3153785,6.50390629 C85.1435026,6.62890692 84.9742335,6.80859262 84.807566,7.04296879 C84.6408985,7.27734497 84.48465,7.56380043 84.338816,7.90234379 C84.1929819,8.24088715 84.083608,8.62890411 84.010691,9.06640629 C84.1356916,8.97265583 84.2711069,8.87630262 84.416941,8.77734379 C84.562775,8.67838497 84.7086069,8.5716152 84.854441,8.45703129 C85.3023599,8.11327958 85.6148567,7.81119926 85.791941,7.55078129 C85.9690252,7.29036333 86.0679825,7.06640723 86.088816,6.87890629 C86.1096494,6.68098864 86.0888163,6.5377609 86.026316,6.44921879 C85.9638157,6.36067668 85.8752749,6.31640629 85.760691,6.31640629 Z M90.838816,11.4414063 C90.9013163,11.4830732 90.9820446,11.5039063 91.0810035,11.5039063 C91.1799623,11.5039063 91.2789196,11.4830732 91.3778785,11.4414063 C91.4768373,11.3997394 91.5705864,11.3424483 91.6591285,11.2695313 C91.7476706,11.1966143 91.8127741,11.1028652 91.854441,10.9882813 C91.8961078,10.8736974 91.8961078,10.7096365 91.854441,10.4960938 C91.8127741,10.2825511 91.7476706,10.0533867 91.6591285,9.80859379 C91.5705864,9.5638009 91.4742332,9.31640754 91.370066,9.06640629 C91.2658988,8.81640504 91.177358,8.58724067 91.104441,8.37890629 C91.0419407,8.22265551 90.9898578,8.07682364 90.948191,7.94140629 C90.9065241,7.82682239 90.867462,7.71484434 90.8310035,7.60546879 C90.794545,7.49609325 90.7658994,7.42057317 90.745066,7.37890629 C90.6929824,7.46224004 90.6018375,7.59765536 90.4716285,7.78515629 C90.3414195,7.97265723 90.2007959,8.16796778 90.0497535,8.37109379 C89.898711,8.57421981 89.7554833,8.76171793 89.620066,8.93359379 C89.4846486,9.10546965 89.3908996,9.22265598 89.338816,9.28515629 C89.2554822,9.37890676 89.1747539,9.43359372 89.0966285,9.44921879 C89.0185031,9.46484387 88.9533996,9.44921903 88.901316,9.40234379 C88.8492324,9.35546856 88.8205868,9.2877609 88.8153785,9.19921879 C88.8101701,9.11067668 88.8492322,9.00390692 88.932566,8.87890629 C88.9950663,8.79557254 89.0888153,8.66276137 89.213816,8.48046879 C89.3388166,8.29817622 89.4638153,8.11067809 89.588816,7.91796879 C89.7138166,7.7252595 89.8283988,7.55338622 89.932566,7.40234379 C90.0367332,7.25130137 90.0940242,7.16015645 90.104441,7.12890629 C90.1252744,7.04557254 90.0966289,6.93619864 90.0185035,6.80078129 C89.9403781,6.66536395 89.9273574,6.50911551 89.979441,6.33203129 C90.0211078,6.18619723 90.1148569,6.01692809 90.260691,5.82421879 C90.406525,5.6315095 90.5783983,5.45703208 90.776316,5.30078129 C90.9742336,5.14453051 91.1773566,5.02734418 91.385691,4.94921879 C91.5940253,4.8710934 91.7815235,4.87369754 91.948191,4.95703129 C92.0836083,5.04036504 92.1929822,5.13150997 92.276316,5.23046879 C92.3596497,5.32942762 92.3908994,5.43098911 92.370066,5.53515629 C92.3492325,5.58723989 92.3179828,5.65494754 92.276316,5.73828129 C92.2346491,5.82161504 92.1721497,5.92317653 92.088816,6.04296879 C92.0054822,6.16276106 91.8856917,6.31640536 91.729441,6.50390629 C91.7606911,6.74349083 91.8049615,6.96223864 91.8622535,7.16015629 C91.9195454,7.35807395 91.9742324,7.52994723 92.026316,7.67578129 C92.0888163,7.85286551 92.1565239,8.01432223 92.229441,8.16015629 C92.3231914,8.34765723 92.4221488,8.54036364 92.526316,8.73828129 C92.6304832,8.93619895 92.7242322,9.1315095 92.807566,9.32421879 C92.8908997,9.51692809 92.9586074,9.69661379 93.010691,9.86328129 C93.0627746,10.0299488 93.0783994,10.1705724 93.057566,10.2851563 C93.0263158,10.4622405 92.9351709,10.67578 92.7841285,10.9257813 C92.633086,11.1757825 92.4455879,11.4179676 92.2216285,11.6523438 C91.997669,11.88672 91.7424632,12.0872388 91.4560035,12.2539063 C91.1695437,12.4205738 90.8700675,12.5039063 90.557566,12.5039063 C90.3388149,12.5039063 90.1278795,12.4361986 89.9247535,12.3007813 C89.7216275,12.165364 89.5497542,12.0065114 89.4091285,11.8242188 C89.2685028,11.6419262 89.1643371,11.4622405 89.0966285,11.2851563 C89.0289198,11.1080721 89.0211074,10.9726568 89.073191,10.8789063 C89.1356913,10.7539057 89.1929824,10.6549483 89.245066,10.5820313 C89.2971496,10.5091143 89.3752738,10.4257818 89.479441,10.3320313 C89.5211078,10.3007811 89.5731907,10.2643232 89.635691,10.2226563 C89.6877746,10.1914061 89.7606905,10.1601565 89.854441,10.1289063 L90.182566,10.0195313 C90.2867332,10.3424496 90.3804822,10.5950512 90.463816,10.7773438 C90.5471497,10.9596364 90.6148574,11.1028641 90.666941,11.2070313 C90.7294413,11.3216152 90.7867324,11.3997394 90.838816,11.4414063 Z"></path>
        </g>
    </g>
</svg>