<svg width="39" height="40" viewBox="0 0 39 40" fill="none" xmlns="http://www.w3.org/2000/svg">
<g id="hiking-buddies-logo-pictogram">
<path id="Subtract" fill-rule="evenodd" clip-rule="evenodd" d="M30.4335 18.2315C30.8016 17.0531 31 15.7997 31 14.5C31 7.59644 25.4036 2 18.5 2C11.5964 2 6 7.59644 6 14.5C6 17.749 7.23958 20.7086 9.27161 22.9314C9.92358 21.8641 10.5387 20.8299 11.0747 19.8686C11.5901 18.9444 13.8684 22.259 14.2674 23.0559C14.3553 23.2312 14.4238 23.3874 14.4809 23.5175C14.6995 24.0157 14.7491 24.1288 15.0656 23.4543C15.2936 22.9685 15.6779 23.7977 16.028 24.5531C16.1089 24.7277 16.188 24.8983 16.2629 25.0479C16.5058 25.5328 17.8113 22.0091 19.1221 18.4713C20.4119 14.9902 21.7068 11.4954 21.999 11.7932C22.5883 12.3934 23.0474 11.1038 23.4465 9.51017C23.9487 7.50476 25.0428 7.11972 26.6392 10.7054C27.954 13.6586 29.2279 16.1427 30.4335 18.2315ZM28.7281 21.6876C27.8752 20.7688 27.1213 19.8721 26.476 19.1044C25.2291 17.6211 24.3873 16.6196 24.018 16.8718C23.5816 17.1699 23.3355 17.468 23.1553 17.6864C22.7844 18.1357 22.6921 18.2475 21.7943 17.3275C21.126 16.6427 19.9175 19.6643 18.7679 22.5386C18.0264 24.3926 17.3094 26.1853 16.7778 26.8823C17.3408 26.9599 17.9157 27 18.5 27C22.7282 27 26.466 24.9007 28.7281 21.6876ZM14.6798 26.4055C15.222 26.1836 15.7511 26.133 16.0491 26.7598C15.5828 26.6671 15.1258 26.5485 14.6798 26.4055ZM12.1054 25.2428C11.5474 24.2947 10.8555 23.4571 10.5 24C10.49 24.0152 10.4745 24.0374 10.4536 24.0662C10.9702 24.5012 11.5224 24.895 12.1054 25.2428Z" fill="#FFB400"/>
<path id="Vector 12" d="M11.5511 21.8988C8.00359 28.4498 0.464267 37.8084 2.2772 39.0001C3.5 38.5 12 30.9899 23.5 27.5C32.5 24.7688 38.6788 26.1179 38 25.4394C36.997 24.4367 33 23 27.0731 13.8943C25.0649 10.8089 25.098 12.167 23.9687 13.944C23.3812 14.8686 23.43 14.9607 22.8424 14.3443C22.2548 13.7279 17.5542 25.7476 16.9666 26.6722C16.379 27.5968 16.379 25.7476 15.7915 25.4394C15.2039 25.1312 14.9101 26.6722 14.6163 25.7476C14.3813 25.0079 12.065 20.9498 11.5511 21.8988Z" fill="#00AD7D"/>
</g>
</svg>
