<?xml version="1.0" encoding="UTF-8"?>
<svg width="38px" height="40px" viewBox="0 0 38 40" version="1.1" xmlns="http://www.w3.org/2000/svg" xmlns:xlink="http://www.w3.org/1999/xlink">
    <!-- Generator: Sketch 55.2 (78181) - https://sketchapp.com -->
    <title>hiking-buddies-logo-pictogram</title>
    <desc>Created with Sketch.</desc>
    <g id="hiking-buddies-logo-pictogram" stroke="none" stroke-width="1" fill="none" fill-rule="evenodd">
        <g id="pictogram">
            <g id="Logo-Copy" transform="translate(2.000000, 0.000000)">
                <path d="M13.524909,39.3471259 C14.1847309,38.8700452 25.1394376,32.0412713 26.2088466,31.6166388 C27.2871318,31.1884817 26.9981988,30.8751785 28.4361603,32.9028051 C28.9740899,33.6613236 29.8033038,34.364134 30.2996458,34.5357667 C30.5499662,34.6223263 31.3678846,33.5107803 31.8555989,33.8363524 C32.3433132,34.1619245 34.4853576,35.9837166 33.9854735,35.9201087 C31.9528449,35.661466 19.1849658,38.358307 13.9034521,40.0800024 C12.7234286,40.4646726 12.6958241,39.9465914 13.524909,39.3471259 Z" id="Mountain" fill="#00AD7D" transform="translate(23.506789, 35.756239) rotate(5.000000) translate(-23.506789, -35.756239) "></path>
                <path d="M12.8732137,13.0336317 C11.4062939,12.6021622 10.6555293,10.6842703 11.1963475,8.74985265 C11.7371657,6.81543501 13.3647699,5.59701625 14.8317169,6.0283906 C16.2986367,6.4598601 17.0494013,8.37775201 16.5085831,10.3121697 C15.9677649,12.2465873 14.3401607,13.4650061 12.8732137,13.0336317 Z M13.0211839,14.8178787 C10.3559396,18.2997681 9.53760261,21.9454221 9.54638998,23.5470352 C9.56102365,26.2142103 11.556042,27.049736 13.2426427,24.9100122 C11.6159477,31.0339598 8.89706437,37.7153841 8.78905865,37.9829154 C8.57581899,38.5111121 4.36926946,37.9368502 4.93961853,34.2569297 C5.5099676,30.5770092 8.5940998,26.8948042 7.73688821,24.8440245 C6.87967661,22.7932448 4.04331565,26.9001637 2.64016379,28.7816038 C1.23701193,30.6630439 0.40590511,29.6543619 0.632173415,28.0432004 C0.85844172,26.432039 3.53069144,18.1661508 11.4617214,15.0456431 C12.0927375,14.7973663 12.6077739,14.7304521 13.0211839,14.8178787 Z" id="Man-2" fill="#FFB400"></path>
                <path d="M25.5700473,8.68248534 C24.2353339,7.92367128 23.9244572,5.88171911 24.8756849,4.12165752 C25.8269125,2.36159593 27.6800338,1.54992443 29.0147472,2.30873848 C30.3494606,3.06755254 30.6603372,5.1095047 29.7091096,6.8695663 C28.7578819,8.62962789 26.9047606,9.44129939 25.5700473,8.68248534 Z M10.2032425,20.4352029 C10.786144,18.9162347 15.2493244,11.4633261 23.6790441,10.2068904 C32.1087638,8.95045468 16.3158141,31.4617884 15.9151179,31.9550635 C15.5144217,32.4483387 11.574089,31.2091986 12.9576221,27.7518948 C14.3411551,24.2945911 18.2194381,21.1072837 17.8455219,18.9162347 C17.4716056,16.7251858 13.7840846,20.0888022 11.9936636,21.6063806 C10.2032425,23.123959 9.62034094,21.9541711 10.2032425,20.4352029 Z M22.2482573,22.8246337 C23.4322955,20.8401038 24.634704,20.0239097 25.8554827,20.3760514 C27.6866508,20.904264 27.8798181,22.6624467 26.5903069,25.1352915 C25.3007958,27.6081362 23.5537068,30.2238059 23.1380801,30.7839508 C22.7224533,31.3440958 20.1104758,30.0138691 21.5114668,27.5958253 C22.1260605,26.5350658 23.6156441,24.204376 23.430687,23.4417098 C23.2900615,22.8618441 22.8959183,22.6561521 22.2482573,22.8246337 Z" id="Man-1" fill="#00AD7D" transform="translate(20.122795, 17.041666) rotate(-13.000000) translate(-20.122795, -17.041666) "></path>
            </g>
        </g>
    </g>
</svg>