<?xml version="1.0" encoding="UTF-8"?>
<svg width="106px" height="23px" viewBox="0 0 106 23" version="1.1" xmlns="http://www.w3.org/2000/svg" xmlns:xlink="http://www.w3.org/1999/xlink">
    <!-- Generator: Sketch 54 (76480) - https://sketchapp.com -->
    <title>HikingBuddies</title>
    <desc>Created with Sketch.</desc>
    <g id="Symbols" stroke="none" stroke-width="1" fill="none" fill-rule="evenodd">
        <g id="UI/Header" transform="translate(-26.000000, -17.000000)" fill="#24BD8B" fill-rule="nonzero">
            <g id="Group">
                <g transform="translate(25.000000, 5.000000)">
                    <path d="M2.40429688,29.3222656 C2.12304547,29.3222656 1.95019563,29.2900394 1.88574219,29.2255859 C1.82128874,29.1611325 1.81249977,29.0351572 1.859375,28.8476562 C1.87109381,28.7890622 1.92968697,28.5283226 2.03515625,28.0654297 C2.14062553,27.6025367 2.27246015,27.0400424 2.43066406,26.3779297 C2.58886798,25.715817 2.75878815,24.9980507 2.94042969,24.2246094 C3.12207122,23.451168 3.29492105,22.7246128 3.45898438,22.0449219 C3.21288939,22.0683595 3.03125059,22.0478519 2.9140625,21.9833984 C2.79687441,21.918945 2.74121091,21.8310552 2.74707031,21.7197266 C2.75292972,21.6083979 2.8173822,21.4941412 2.94042969,21.3769531 C3.06347718,21.259765 3.24218633,21.1601567 3.4765625,21.078125 C3.52343773,21.0546874 3.59374953,21.0312501 3.6875,21.0078125 C3.74609404,20.8085928 3.79882789,20.6035167 3.84570312,20.3925781 C3.89257836,20.216796 3.93945289,20.0292979 3.98632812,19.8300781 C4.03320336,19.6308584 4.08007789,19.4375009 4.12695312,19.25 L5.35742187,13.9941406 C5.42773473,13.724608 5.53613208,13.5224616 5.68261719,13.3876953 C5.82910229,13.252929 6.10156051,13.1386723 6.5,13.0449219 C6.82812664,12.9628902 7.05663998,12.930664 7.18554688,12.9482422 C7.31445377,12.9658204 7.37304693,13.003906 7.36132812,13.0625 C7.3261717,13.1914069 7.23828195,13.5019507 7.09765625,13.9941406 C6.95703055,14.4863306 6.79004003,15.0869105 6.59667969,15.7958984 C6.40331935,16.5048864 6.19531361,17.2841754 5.97265625,18.1337891 C5.74999889,18.9834027 5.53320418,19.8242146 5.32226562,20.65625 C6.02539414,20.5507807 6.88085434,20.462891 7.88867188,20.3925781 C8.27539256,20.3457029 8.65331847,20.3164063 9.02246094,20.3046875 C9.39160341,20.2929687 9.74609205,20.2929687 10.0859375,20.3046875 C10.2500008,19.6718718 10.411132,19.0390657 10.5693359,18.40625 C10.7275399,17.7734343 10.8769524,17.1875027 11.0175781,16.6484375 C11.1582038,16.1093723 11.2841791,15.631838 11.3955078,15.2158203 C11.5068365,14.7998026 11.5917966,14.4921885 11.6503906,14.2929688 C11.7207035,14.0703114 11.7880856,13.8886726 11.8525391,13.7480469 C11.9169925,13.6074212 11.9931636,13.4960942 12.0810547,13.4140625 C12.1689458,13.3320308 12.2714838,13.2734377 12.3886719,13.2382812 C12.50586,13.2031248 12.6406242,13.1738282 12.7929688,13.1503906 C12.8750004,13.1503906 12.9746088,13.1445313 13.0917969,13.1328125 C13.1855473,13.1328125 13.2968744,13.1298828 13.4257812,13.1240234 C13.5546881,13.118164 13.7011711,13.126953 13.8652344,13.1503906 C13.4199196,14.3457091 13.0068378,15.5556579 12.6259766,16.7802734 C12.2451153,18.0048889 11.8906266,19.1972598 11.5625,20.3574219 C11.7734386,20.3808595 11.958007,20.3984374 12.1162109,20.4101562 C12.2744149,20.4218751 12.4003902,20.439453 12.4941406,20.4628906 C12.775392,20.5097659 12.9541012,20.585937 13.0302734,20.6914062 C13.1064457,20.7968755 13.0800788,20.9492178 12.9511719,21.1484375 L12.7402344,21.4121094 C12.6699215,21.5058598 12.5820318,21.6142572 12.4765625,21.7373047 C12.3710932,21.8603522 12.2363289,21.9980461 12.0722656,22.1503906 C11.9785152,22.1152342 11.8818364,22.0800783 11.7822266,22.0449219 C11.6826167,22.0097654 11.585938,21.9746096 11.4921875,21.9394531 C11.3749994,21.9042967 11.2636724,21.8691408 11.1582031,21.8339844 C11.0761715,22.1152358 11.0000004,22.387694 10.9296875,22.6513672 C10.8593746,22.9150404 10.7949222,23.1816393 10.7363281,23.4511719 C10.5957024,24.0253935 10.4609381,24.6171845 10.3320312,25.2265625 C10.226562,25.7539089 10.1181646,26.3369109 10.0068359,26.9755859 C9.89550726,27.614261 9.81054717,28.2441375 9.75195312,28.8652344 C9.65820266,28.9121096 9.56445359,28.9443358 9.47070312,28.9619141 C9.37695266,28.9794923 9.29492223,28.9941406 9.22460938,29.0058594 L8.97851562,29.0410156 L8.75,29.0410156 C8.70312477,29.0410156 8.65625023,29.029297 8.609375,29.0058594 C8.55078096,28.9941406 8.49218779,28.9765626 8.43359375,28.953125 C8.37499971,28.9296874 8.3193362,28.9091798 8.26660156,28.8916016 C8.21386692,28.8740233 8.15820342,28.8476564 8.09960937,28.8125 C8.19335984,28.4257793 8.2666013,28.0625017 8.31933594,27.7226562 C8.37207058,27.3828108 8.41015613,27.0839857 8.43359375,26.8261719 C8.46875018,26.5214829 8.49218744,26.2519543 8.50390625,26.0175781 C8.51562506,25.7128891 8.48339882,25.3789081 8.40722656,25.015625 C8.33105431,24.6523419 8.21386798,24.2949236 8.05566406,23.9433594 C7.89746015,23.5917951 7.70410271,23.2636734 7.47558594,22.9589844 C7.24706917,22.6542954 6.98632959,22.3964854 6.69335938,22.1855469 C6.40038916,21.9863271 6.12207163,21.8574222 5.85839844,21.7988281 C5.59472524,21.7402341 5.32812635,21.7226561 5.05859375,21.7460938 C4.97656209,22.097658 4.90039098,22.4374984 4.83007812,22.765625 C4.75976527,23.0937516 4.70117211,23.4101547 4.65429688,23.7148438 C4.52538998,24.3945346 4.40234434,25.0566374 4.28515625,25.7011719 C4.19140578,26.2519559 4.09472706,26.8232392 3.99511719,27.4150391 C3.89550731,28.0068389 3.82226586,28.5136698 3.77539062,28.9355469 C3.58788969,29.0292973 3.4121102,29.1025388 3.24804688,29.1552734 C3.08398355,29.2080081 2.93750064,29.2460936 2.80859375,29.2695312 C2.66796805,29.3046877 2.53320377,29.3222656 2.40429688,29.3222656 Z M9.36523438,21.5175781 C8.95507607,21.4707029 8.56543153,21.444336 8.19628906,21.4384766 C7.82714659,21.4326172 7.50195453,21.4296875 7.22070312,21.4296875 C7.4550793,21.5585944 7.66308503,21.7285146 7.84472656,21.9394531 C8.0263681,22.1503917 8.21679588,22.3906237 8.41601562,22.6601562 C8.60351656,22.9062512 8.75585879,23.1757798 8.87304688,23.46875 C8.99023496,23.7617202 9.08984334,24.0429674 9.171875,24.3125 C9.26562547,23.82031 9.36523385,23.3398461 9.47070312,22.8710938 C9.5761724,22.4023414 9.67578078,21.9628927 9.76953125,21.5527344 C9.6992184,21.5410156 9.63183626,21.5322266 9.56738281,21.5263672 C9.50292937,21.5205078 9.43554723,21.5175781 9.36523438,21.5175781 Z M17.5566406,15.6464844 C17.5214842,15.7753913 17.4541021,15.9013666 17.3544922,16.0244141 C17.2548823,16.1474616 17.1435553,16.2470699 17.0205078,16.3232422 C16.8974603,16.3994144 16.771485,16.4492186 16.6425781,16.4726562 C16.5136712,16.4960939 16.4082035,16.4726566 16.3261719,16.4023438 C16.0800769,16.2148428 15.9511719,16.0126964 15.9394531,15.7958984 C15.9277343,15.5791005 15.9804682,15.3740244 16.0976562,15.1806641 C16.2148443,14.9873037 16.3613272,14.8232429 16.5371094,14.6884766 C16.7128915,14.5537103 16.8652337,14.4746095 16.9941406,14.4511719 C17.1230475,14.4277343 17.2314449,14.4541012 17.3193359,14.5302734 C17.407227,14.6064457 17.4746091,14.7060541 17.5214844,14.8291016 C17.5683596,14.9521491 17.5947265,15.089843 17.6005859,15.2421875 C17.6064453,15.394532 17.5917971,15.5292963 17.5566406,15.6464844 Z M15.1308594,19.390625 C15.1894534,19.3203121 15.3007804,19.261719 15.4648438,19.2148438 C15.6289071,19.1679685 15.7988272,19.129883 15.9746094,19.1005859 C16.1503915,19.0712889 16.3115227,19.053711 16.4580078,19.0478516 C16.6044929,19.0419922 16.689453,19.0449218 16.7128906,19.0566406 C16.7246094,19.0683594 16.6953129,19.1914051 16.625,19.4257812 C16.5546871,19.6601574 16.4667974,19.9355453 16.3613281,20.2519531 C16.2558588,20.568361 16.1445318,20.893553 16.0273438,21.2275391 C15.9101557,21.5615251 15.8222659,21.8339833 15.7636719,22.0449219 C15.7050778,22.2558604 15.634766,22.4931627 15.5527344,22.7568359 C15.4707027,23.0205091 15.3974613,23.2783191 15.3330078,23.5302734 C15.2685544,23.7822278 15.2246095,24.0195301 15.2011719,24.2421875 C15.1777343,24.4648449 15.1953122,24.634765 15.2539062,24.7519531 C15.3125003,24.8925788 15.3769528,24.9892575 15.4472656,25.0419922 C15.5175785,25.0947268 15.5937496,25.1210938 15.6757812,25.1210938 C15.9101574,25.1210938 16.2060529,24.9921888 16.5634766,24.734375 C16.9209002,24.4765612 17.2841778,24.1689471 17.6533203,23.8115234 C18.0224628,23.4540998 18.3652328,23.0908222 18.6816406,22.7216797 C18.9980485,22.3525372 19.2324211,22.0566417 19.3847656,21.8339844 C19.4785161,21.7167963 19.5751948,21.6406252 19.6748047,21.6054688 C19.7744146,21.5703123 19.856445,21.5761716 19.9208984,21.6230469 C19.9853519,21.6699221 20.0205078,21.7460932 20.0263672,21.8515625 C20.0322266,21.9570318 19.994141,22.0800774 19.9121094,22.2207031 C19.7246084,22.5488298 19.4492206,22.9384743 19.0859375,23.3896484 C18.7226544,23.8408226 18.3359396,24.274412 17.9257812,24.6904297 C17.5156229,25.1064474 17.1142598,25.460936 16.7216797,25.7539062 C16.3290996,26.0468765 16.0097669,26.1992187 15.7636719,26.2109375 C15.5644521,26.2226563 15.368165,26.1904301 15.1748047,26.1142578 C14.9814443,26.0380856 14.8056649,25.9326179 14.6474609,25.7978516 C14.489257,25.6630853 14.3574224,25.5048837 14.2519531,25.3232422 C14.1464838,25.1416007 14.0878907,24.9511729 14.0761719,24.7519531 C14.0410154,24.4589829 14.0410154,24.0576197 14.0761719,23.5478516 C14.1113283,23.0380834 14.1757808,22.5166042 14.2695312,21.9833984 C14.3632817,21.4501926 14.4833977,20.9433618 14.6298828,20.4628906 C14.7763679,19.9824195 14.9433584,19.6250012 15.1308594,19.390625 Z M27.6464844,22.5019531 C27.3769518,22.9472679 27.0693377,23.4072242 26.7236328,23.8818359 C26.377928,24.3564477 26.0117207,24.7900371 25.625,25.1826172 C25.2382793,25.5751973 24.8398458,25.9003893 24.4296875,26.1582031 C24.0195292,26.4160169 23.6093771,26.5449219 23.1992188,26.5449219 C22.7890604,26.5449219 22.493165,26.4072279 22.3115234,26.1318359 C22.1298819,25.8564439 22.0449218,25.5488298 22.0566406,25.2089844 C22.0566406,25.0566399 22.0712889,24.9218756 22.1005859,24.8046875 C22.129883,24.6874994 22.1621092,24.5820317 22.1972656,24.4882812 C22.2324221,24.3945308 22.2705076,24.2978521 22.3115234,24.1982422 C22.3525393,24.0986323 22.3906248,23.9843756 22.4257812,23.8554688 C22.4726565,23.7031242 22.4755861,23.5654303 22.4345703,23.4423828 C22.3935545,23.3193353 22.3437503,23.210938 22.2851562,23.1171875 C22.179687,23.2343756 22.059571,23.3369136 21.9248047,23.4248047 C21.7900384,23.5126958 21.6230479,23.5566406 21.4238281,23.5566406 C21.2832024,23.5566406 21.1542975,23.4892585 21.0371094,23.3544922 C20.9199213,23.2197259 20.8613281,23.0527354 20.8613281,22.8535156 C20.8613281,22.6894523 20.8994137,22.554688 20.9755859,22.4492188 C21.0517582,22.3437495 21.1396479,22.261719 21.2392578,22.203125 C21.3388677,22.144531 21.4414057,22.1035157 21.546875,22.0800781 C21.6523443,22.0566405 21.740234,22.0449219 21.8105469,22.0449219 C21.8457033,22.0449219 21.9189448,22.0507812 22.0302734,22.0625 C22.1416021,22.0742188 22.2617181,22.0917968 22.390625,22.1152344 C22.8125021,21.7753889 23.1142569,21.4677748 23.2958984,21.1923828 C23.47754,20.9169908 23.4921883,20.6679699 23.3398438,20.4453125 C23.2460933,20.292968 23.128907,20.2138672 22.9882812,20.2080078 C22.8476555,20.2021484 22.7011726,20.2373043 22.5488281,20.3134766 C22.3964836,20.3896488 22.247071,20.4863275 22.1005859,20.6035156 C21.9541008,20.7207037 21.8222662,20.8320307 21.7050781,20.9375 C21.470702,21.1718762 21.2099624,21.4501937 20.9228516,21.7724609 C20.6357408,22.0947282 20.3984384,22.3613271 20.2109375,22.5722656 C20.1289058,22.9238299 20.0468754,23.2929668 19.9648438,23.6796875 C19.8945309,24.0195329 19.8154301,24.4033182 19.7275391,24.8310547 C19.639648,25.2587912 19.5488286,25.7011696 19.4550781,26.1582031 C19.3847653,26.1933596 19.3115238,26.2197265 19.2353516,26.2373047 C19.1591793,26.2548829 19.0917972,26.2695312 19.0332031,26.28125 C18.9628903,26.2929688 18.8925785,26.2988281 18.8222656,26.2988281 C18.7285152,26.2988281 18.6406254,26.2958985 18.5585938,26.2900391 C18.4765621,26.2841797 18.40918,26.2548831 18.3564453,26.2021484 C18.3037107,26.1494138 18.2744141,26.0644537 18.2685547,25.9472656 C18.2626953,25.8300775 18.2949215,25.6660167 18.3652344,25.4550781 C18.4589848,25.1503891 18.5761712,24.7431666 18.7167969,24.2333984 C18.8574226,23.7236303 19.0039055,23.1640655 19.15625,22.5546875 C19.3085945,21.9453095 19.4638664,21.3095736 19.6220703,20.6474609 C19.7802742,19.9853483 19.9296868,19.3525421 20.0703125,18.7490234 C20.2109382,18.1455048 20.3310542,17.6005884 20.4306641,17.1142578 C20.5302739,16.6279273 20.6035154,16.244142 20.6503906,15.9628906 C20.6855471,15.6582016 20.7207029,15.3652358 20.7558594,15.0839844 C20.779297,14.8496082 20.7939453,14.6181652 20.7998047,14.3896484 C20.8056641,14.1611317 20.7910158,13.9882818 20.7558594,13.8710938 C20.8144534,13.8124997 20.8964838,13.7597659 21.0019531,13.7128906 C21.1074224,13.6660154 21.2246087,13.6308595 21.3535156,13.6074219 C21.4824225,13.5722654 21.6347647,13.5429689 21.8105469,13.5195312 C22.0097666,13.4960936 22.1767571,13.4902343 22.3115234,13.5019531 C22.4462897,13.5136719 22.5429685,13.5722651 22.6015625,13.6777344 C22.6718754,13.7949225 22.6865236,13.9912096 22.6455078,14.2666016 C22.604492,14.5419936 22.5195319,14.9257788 22.390625,15.4179688 C22.2265617,16.0507844 22.0595712,16.6279271 21.8896484,17.1494141 C21.7197257,17.670901 21.5556649,18.160154 21.3974609,18.6171875 C21.239257,19.074221 21.0869148,19.5165994 20.9404297,19.9443359 C20.7939446,20.3720725 20.66211,20.8085915 20.5449219,21.2539062 C20.779298,20.9140608 21.0722639,20.5537128 21.4238281,20.1728516 C21.7753924,19.7919903 22.1738259,19.4785169 22.6191406,19.2324219 C23.087893,18.9863269 23.4746079,18.8632812 23.7792969,18.8632812 C24.1542988,18.8632812 24.4238273,18.9892566 24.5878906,19.2412109 C24.7519539,19.4931653 24.8281251,19.7890608 24.8164062,20.1289062 C24.8046874,20.3984388 24.7373053,20.6474598 24.6142578,20.8759766 C24.4912103,21.1044933 24.3417978,21.3154287 24.1660156,21.5087891 C23.9902335,21.7021494 23.8027354,21.8691399 23.6035156,22.0097656 C23.4042959,22.1503913 23.2343757,22.2675777 23.09375,22.3613281 C23.2578133,22.4550786 23.4013666,22.5810539 23.5244141,22.7392578 C23.6474616,22.8974617 23.7031251,23.0937488 23.6914062,23.328125 C23.6796874,23.6445328 23.6181646,23.9228504 23.5068359,24.1630859 C23.3955073,24.4033215 23.3398438,24.6230459 23.3398438,24.8222656 C23.3515626,24.9746101 23.3837888,25.0859371 23.4365234,25.15625 C23.4892581,25.2265629 23.6035147,25.2617188 23.7792969,25.2617188 C24.0957047,25.2617188 24.4267561,25.1269545 24.7724609,24.8574219 C25.1181658,24.5878893 25.4433579,24.2773455 25.7480469,23.9257812 C26.0527359,23.574217 26.3339831,23.2255877 26.5917969,22.8798828 C26.8496107,22.534178 27.0488274,22.2792977 27.1894531,22.1152344 C27.3886729,21.9042958 27.5556634,21.8486323 27.6904297,21.9482422 C27.825196,22.0478521 27.8105477,22.2324205 27.6464844,22.5019531 Z M30.4238281,15.6464844 C30.3886717,15.7753913 30.3212896,15.9013666 30.2216797,16.0244141 C30.1220698,16.1474616 30.0107428,16.2470699 29.8876953,16.3232422 C29.7646478,16.3994144 29.6386725,16.4492186 29.5097656,16.4726562 C29.3808587,16.4960939 29.275391,16.4726566 29.1933594,16.4023438 C28.9472644,16.2148428 28.8183594,16.0126964 28.8066406,15.7958984 C28.7949218,15.5791005 28.8476557,15.3740244 28.9648438,15.1806641 C29.0820318,14.9873037 29.2285147,14.8232429 29.4042969,14.6884766 C29.580079,14.5537103 29.7324212,14.4746095 29.8613281,14.4511719 C29.990235,14.4277343 30.0986324,14.4541012 30.1865234,14.5302734 C30.2744145,14.6064457 30.3417966,14.7060541 30.3886719,14.8291016 C30.4355471,14.9521491 30.461914,15.089843 30.4677734,15.2421875 C30.4736328,15.394532 30.4589846,15.5292963 30.4238281,15.6464844 Z M27.9980469,19.390625 C28.0566409,19.3203121 28.1679679,19.261719 28.3320312,19.2148438 C28.4960946,19.1679685 28.6660147,19.129883 28.8417969,19.1005859 C29.017579,19.0712889 29.1787102,19.053711 29.3251953,19.0478516 C29.4716804,19.0419922 29.5566405,19.0449218 29.5800781,19.0566406 C29.5917969,19.0683594 29.5625004,19.1914051 29.4921875,19.4257812 C29.4218746,19.6601574 29.3339849,19.9355453 29.2285156,20.2519531 C29.1230463,20.568361 29.0117193,20.893553 28.8945312,21.2275391 C28.7773432,21.5615251 28.6894534,21.8339833 28.6308594,22.0449219 C28.5722653,22.2558604 28.5019535,22.4931627 28.4199219,22.7568359 C28.3378902,23.0205091 28.2646488,23.2783191 28.2001953,23.5302734 C28.1357419,23.7822278 28.091797,24.0195301 28.0683594,24.2421875 C28.0449218,24.4648449 28.0624997,24.634765 28.1210938,24.7519531 C28.1796878,24.8925788 28.2441403,24.9892575 28.3144531,25.0419922 C28.384766,25.0947268 28.4609371,25.1210938 28.5429688,25.1210938 C28.7773449,25.1210938 29.0732404,24.9921888 29.4306641,24.734375 C29.7880877,24.4765612 30.1513653,24.1689471 30.5205078,23.8115234 C30.8896503,23.4540998 31.2324203,23.0908222 31.5488281,22.7216797 C31.865236,22.3525372 32.0996086,22.0566417 32.2519531,21.8339844 C32.3457036,21.7167963 32.4423823,21.6406252 32.5419922,21.6054688 C32.6416021,21.5703123 32.7236325,21.5761716 32.7880859,21.6230469 C32.8525394,21.6699221 32.8876953,21.7460932 32.8935547,21.8515625 C32.8994141,21.9570318 32.8613285,22.0800774 32.7792969,22.2207031 C32.5917959,22.5488298 32.3164081,22.9384743 31.953125,23.3896484 C31.5898419,23.8408226 31.2031271,24.274412 30.7929688,24.6904297 C30.3828104,25.1064474 29.9814473,25.460936 29.5888672,25.7539062 C29.1962871,26.0468765 28.8769544,26.1992187 28.6308594,26.2109375 C28.4316396,26.2226563 28.2353525,26.1904301 28.0419922,26.1142578 C27.8486318,26.0380856 27.6728524,25.9326179 27.5146484,25.7978516 C27.3564445,25.6630853 27.2246099,25.5048837 27.1191406,25.3232422 C27.0136713,25.1416007 26.9550782,24.9511729 26.9433594,24.7519531 C26.9082029,24.4589829 26.9082029,24.0576197 26.9433594,23.5478516 C26.9785158,23.0380834 27.0429683,22.5166042 27.1367188,21.9833984 C27.2304692,21.4501926 27.3505852,20.9433618 27.4970703,20.4628906 C27.6435554,19.9824195 27.8105459,19.6250012 27.9980469,19.390625 Z M36.7167969,26.4394531 C36.4472643,26.4394531 36.2158213,26.3896489 36.0224609,26.2900391 C35.8291006,26.1904292 35.6738287,26.0585946 35.5566406,25.8945312 C35.4394525,25.7304679 35.3632814,25.5400401 35.328125,25.3232422 C35.2929686,25.1064442 35.3046872,24.8750012 35.3632812,24.6289062 C35.3984377,24.4648429 35.4570308,24.2451186 35.5390625,23.9697266 C35.6210942,23.6943346 35.7060542,23.3955094 35.7939453,23.0732422 C35.8818364,22.750975 35.9638668,22.4287125 36.0400391,22.1064453 C36.1162113,21.7841781 36.1660155,21.4912123 36.1894531,21.2275391 C36.2128907,20.9638659 36.2011721,20.7470712 36.1542969,20.5771484 C36.1074216,20.4072257 36.0078133,20.3222656 35.8554688,20.3222656 C35.6679678,20.3222656 35.4746104,20.3837884 35.2753906,20.5068359 C35.0761709,20.6298834 34.8740245,20.7968739 34.6689453,21.0078125 C34.4638662,21.2187511 34.2587901,21.4619127 34.0537109,21.7373047 C33.8486318,22.0126967 33.6464854,22.2968735 33.4472656,22.5898438 C33.3417963,22.9882832 33.2539066,23.3369126 33.1835938,23.6357422 C33.1132809,23.9345718 33.0517581,24.2041004 32.9990234,24.4443359 C32.9462888,24.6845715 32.8964846,24.8955069 32.8496094,25.0771484 C32.8027341,25.25879 32.7617189,25.4316398 32.7265625,25.5957031 C32.6914061,25.7128912 32.5859384,25.8271479 32.4101562,25.9384766 C32.2343741,26.0498052 32.046876,26.1406246 31.8476562,26.2109375 C31.6484365,26.2812504 31.4755867,26.3164062 31.3291016,26.3164062 C31.1826165,26.3164062 31.1210936,26.2636724 31.1445312,26.1582031 C31.1562501,26.0878903 31.1943356,25.9296887 31.2587891,25.6835938 C31.3232425,25.4374988 31.3994136,25.1474626 31.4873047,24.8134766 C31.5751958,24.4794905 31.6660152,24.1250019 31.7597656,23.75 C31.8535161,23.3749981 31.9414058,23.0175798 32.0234375,22.6777344 C32.0820315,22.4082018 32.146484,22.1093766 32.2167969,21.78125 C32.2753909,21.4999986 32.3486324,21.1718769 32.4365234,20.796875 C32.5244145,20.4218731 32.6269525,20.011721 32.7441406,19.5664062 C32.8261723,19.4960934 32.9111324,19.4404299 32.9990234,19.3994141 C33.0869145,19.3583982 33.1777339,19.326172 33.2714844,19.3027344 C33.3652348,19.2675779 33.4648432,19.2441407 33.5703125,19.2324219 C33.664063,19.2324219 33.757812,19.2382812 33.8515625,19.25 C33.9335942,19.2617188 34.0185542,19.2822264 34.1064453,19.3115234 C34.1943364,19.3408205 34.2734371,19.3847653 34.34375,19.4433594 C34.3085936,19.525391 34.2675784,19.6396477 34.2207031,19.7861328 C34.1738279,19.9326179 34.1269534,20.0878898 34.0800781,20.2519531 C34.0332029,20.4394541 33.9746097,20.6328115 33.9042969,20.8320312 C34.0566414,20.6210927 34.2294912,20.4072276 34.4228516,20.1904297 C34.6162119,19.9736317 34.8271473,19.7773446 35.0556641,19.6015625 C35.2841808,19.4257804 35.5273425,19.2822271 35.7851562,19.1708984 C36.04297,19.0595698 36.3066393,19.0039062 36.5761719,19.0039062 C36.7988292,19.0039062 36.998046,19.0683587 37.1738281,19.1972656 C37.3496103,19.3261725 37.4873042,19.5048817 37.5869141,19.7333984 C37.6865239,19.9619152 37.7451171,20.2343734 37.7626953,20.5507812 C37.7802735,20.8671891 37.7363287,21.2128888 37.6308594,21.5878906 L37.4375,22.3613281 C37.378906,22.6074231 37.3056645,22.8974593 37.2177734,23.2314453 C37.1298824,23.5654314 37.021485,23.9316386 36.8925781,24.3300781 C36.8222653,24.5878919 36.7958983,24.8105459 36.8134766,24.9980469 C36.8310548,25.1855478 36.9453114,25.2792969 37.15625,25.2792969 C37.3671886,25.2792969 37.6337875,25.1503919 37.9560547,24.8925781 C38.2783219,24.6347643 38.603514,24.3242206 38.9316406,23.9609375 C39.2597673,23.5976544 39.570311,23.2255878 39.8632812,22.8447266 C40.1562515,22.4638653 40.3789055,22.1562512 40.53125,21.921875 C40.6367193,21.7695305 40.7363277,21.6699221 40.8300781,21.6230469 C40.9238286,21.5761716 40.99707,21.5703123 41.0498047,21.6054688 C41.1025393,21.6406252 41.1289062,21.7197259 41.1289062,21.8427734 C41.1289062,21.9658209 41.0820317,22.1210928 40.9882812,22.3085938 C40.9062496,22.4726571 40.7802743,22.6894518 40.6103516,22.9589844 C40.4404288,23.228517 40.2382824,23.5156235 40.0039062,23.8203125 C39.7695301,24.1250015 39.5175795,24.4326156 39.2480469,24.7431641 C38.9785143,25.0537125 38.6972671,25.3349597 38.4042969,25.5869141 C38.1113267,25.8388684 37.8212905,26.0439445 37.5341797,26.2021484 C37.2470689,26.3603524 36.9746107,26.4394531 36.7167969,26.4394531 Z M44.4511719,28.5136719 L44.2314453,29.5683594 C44.1435542,29.9902365 44.0439459,30.4355445 43.9326172,30.9042969 C43.8212885,31.3730492 43.6923835,31.8388649 43.5458984,32.3017578 C43.3994133,32.7646508 43.2382821,33.1806622 43.0625,33.5498047 C42.8867179,33.9189472 42.6933604,34.220702 42.4824219,34.4550781 C42.2714833,34.6894543 42.0371107,34.8066406 41.7792969,34.8066406 C41.3925762,34.8066406 41.0615248,34.692384 40.7861328,34.4638672 C40.5107408,34.2353504 40.2792978,33.9482439 40.0917969,33.6025391 C39.9042959,33.2568342 39.766602,32.8847676 39.6787109,32.4863281 C39.5908199,32.0878886 39.546875,31.7187517 39.546875,31.3789062 C39.546875,30.9101539 39.5878902,30.5205094 39.6699219,30.2099609 C39.7519535,29.8994125 39.8955068,29.603517 40.1005859,29.3222656 C40.3056651,29.0410142 40.5839826,28.7421891 40.9355469,28.4257812 C41.2871111,28.1093734 41.7382785,27.7167992 42.2890625,27.2480469 C42.5585951,27.0136707 42.816405,26.7910167 43.0625,26.5800781 C43.308595,26.3691396 43.5429676,26.1757821 43.765625,26 C43.824219,25.7656238 43.8798825,25.5458995 43.9326172,25.3408203 C43.9853518,25.1357412 44.0292967,24.9511727 44.0644531,24.7871094 C43.7597641,25.1972677 43.3935568,25.5429673 42.9658203,25.8242188 C42.5380838,26.1054702 42.0488309,26.2460938 41.4980469,26.2460938 C40.9941381,26.2460938 40.5869156,26.0205101 40.2763672,25.5693359 C39.9658188,25.1181618 39.8105469,24.4531294 39.8105469,23.5742188 C39.8105469,23.1406228 39.8925773,22.6425809 40.0566406,22.0800781 C40.2207039,21.5175753 40.4550766,20.9902368 40.7597656,20.4980469 C41.0644546,20.0058569 41.4394509,19.5898454 41.8847656,19.25 C42.3300804,18.9101546 42.8281222,18.7402344 43.3789062,18.7402344 C43.63672,18.7402344 43.8593741,18.8046869 44.046875,18.9335938 C44.2343759,19.0625006 44.3925775,19.2236318 44.5214844,19.4169922 C44.6503913,19.6103525 44.7499996,19.8154286 44.8203125,20.0322266 C44.8906254,20.2490245 44.9433592,20.4511709 44.9785156,20.6386719 C45.0019532,20.568359 45.0195312,20.4951176 45.03125,20.4189453 C45.0429688,20.3427731 45.0605468,20.2753909 45.0839844,20.2167969 C45.2011725,19.8183574 45.3330071,19.5458992 45.4794922,19.3994141 C45.6259773,19.252929 45.8457017,19.1796875 46.1386719,19.1796875 C46.3027352,19.1796875 46.4404291,19.2089841 46.5517578,19.2675781 C46.6630865,19.3261722 46.71875,19.378906 46.71875,19.4257812 C46.660156,19.5546881 46.6132814,19.6542965 46.578125,19.7246094 C46.5429686,19.7949222 46.5078127,19.8681637 46.4726562,19.9443359 C46.4374998,20.0205082 46.4023439,20.1171869 46.3671875,20.234375 C46.3320311,20.3515631 46.2851565,20.5214833 46.2265625,20.7441406 C46.2031249,20.8261723 46.15918,21.0166001 46.0947266,21.3154297 C46.0302731,21.6142593 45.9482427,21.9687479 45.8486328,22.3789062 C45.7490229,22.7890646 45.6435552,23.2402319 45.5322266,23.7324219 C45.4208979,24.2246118 45.3125005,24.7050758 45.2070312,25.1738281 C45.5351579,24.9863272 45.8749982,24.7578138 46.2265625,24.4882812 C46.5781268,24.2187487 46.9121078,23.9433608 47.2285156,23.6621094 C47.5449235,23.380858 47.8261706,23.1142591 48.0722656,22.8623047 C48.3183606,22.6103503 48.4999994,22.4023446 48.6171875,22.2382812 C48.710938,22.0976555 48.8164057,21.9980472 48.9335938,21.9394531 C49.0507818,21.8808591 49.1533199,21.8603515 49.2412109,21.8779297 C49.329102,21.8955079 49.3818358,21.9482417 49.3994141,22.0361328 C49.4169923,22.1240239 49.3789067,22.2441399 49.2851562,22.3964844 C49.0156237,22.8300803 48.6875019,23.2490214 48.3007812,23.6533203 C47.9140606,24.0576192 47.5185567,24.4326155 47.1142578,24.7783203 C46.7099589,25.1240252 46.3173847,25.4287096 45.9365234,25.6923828 C45.5556622,25.956056 45.2304701,26.1699211 44.9609375,26.3339844 C44.8437494,26.8613308 44.744141,27.2890609 44.6621094,27.6171875 C44.5800777,27.9453141 44.5097659,28.2441393 44.4511719,28.5136719 Z M42.2363281,25.0507812 C42.4824231,25.0507812 42.7138661,24.9863288 42.9306641,24.8574219 C43.147462,24.728515 43.3437491,24.5791024 43.5195312,24.4091797 C43.6953134,24.239257 43.8417963,24.0664071 43.9589844,23.890625 C44.0761725,23.7148429 44.1640622,23.5742193 44.2226562,23.46875 C44.2695315,23.3632807 44.325195,23.2226571 44.3896484,23.046875 C44.4541019,22.8710929 44.5039061,22.7011727 44.5390625,22.5371094 C44.5742189,22.3730461 44.5888672,22.2265631 44.5830078,22.0976562 C44.5771484,21.9687494 44.5332035,21.8984376 44.4511719,21.8867188 C44.380859,21.8749999 44.3251955,21.8281254 44.2841797,21.7460938 C44.2431639,21.6640621 44.2109376,21.570313 44.1875,21.4648438 C44.1640624,21.3593745 44.1494141,21.2539068 44.1435547,21.1484375 C44.1376953,21.0429682 44.1289063,20.9492192 44.1171875,20.8671875 C44.0585935,20.4570292 43.9589851,20.1582041 43.8183594,19.9707031 C43.6777337,19.7832022 43.5195321,19.6894531 43.34375,19.6894531 C43.0507798,19.6894531 42.7724623,19.8066395 42.5087891,20.0410156 C42.2451159,20.2753918 42.0107432,20.5771466 41.8056641,20.9462891 C41.6005849,21.3154315 41.4394537,21.7197244 41.3222656,22.1591797 C41.2050775,22.598635 41.1464844,23.0175761 41.1464844,23.4160156 C41.1464844,23.9082056 41.2167962,24.3037094 41.3574219,24.6025391 C41.4980476,24.9013687 41.7910134,25.0507812 42.2363281,25.0507812 Z M41.4277344,33.2070312 C41.6621105,33.2070312 41.8525383,33.0341814 41.9990234,32.6884766 C42.1455085,32.3427717 42.3007804,31.8710967 42.4648438,31.2734375 C42.5000002,31.1328118 42.5498044,30.9306654 42.6142578,30.6669922 C42.6787113,30.403319 42.7548824,30.1015642 42.8427734,29.7617188 C42.9306645,29.4218733 43.0214839,29.055666 43.1152344,28.6630859 C43.2089848,28.2705058 43.3085932,27.875002 43.4140625,27.4765625 C43.320312,27.5585942 43.2236333,27.6435542 43.1240234,27.7314453 C43.0244136,27.8193364 42.9218755,27.9218744 42.8164062,28.0390625 C42.5585925,28.2851575 42.3095715,28.5224598 42.0693359,28.7509766 C41.8291004,28.9794933 41.6152353,29.2197253 41.4277344,29.4716797 C41.2402334,29.7236341 41.0908209,29.9960923 40.9794922,30.2890625 C40.8681635,30.5820327 40.8125,30.9218731 40.8125,31.3085938 C40.8125,31.6953144 40.8271483,32.0117175 40.8564453,32.2578125 C40.8857423,32.5039075 40.9267575,32.6972649 40.9794922,32.8378906 C41.0322268,32.9785163 41.0966793,33.075195 41.1728516,33.1279297 C41.2490238,33.1806643 41.3339839,33.2070312 41.4277344,33.2070312 Z M62.5390625,24.3476562 C62.4687496,25.1328164 62.234377,25.8359344 61.8359375,26.4570312 C61.437498,27.0781281 60.9306671,27.6025369 60.3154297,28.0302734 C59.7001922,28.45801 59.0058632,28.783202 58.2324219,29.0058594 C57.4589805,29.2285167 56.6621135,29.3398438 55.8417969,29.3398438 C55.5371079,29.3398438 55.252931,29.3193361 54.9892578,29.2783203 C54.7255846,29.2373045 54.4882823,29.1875003 54.2773438,29.1289062 C54.0664052,29.0703122 53.887696,29.0146487 53.7412109,28.9619141 C53.5947258,28.9091794 53.4921878,28.8652346 53.4335938,28.8300781 C53.3281245,28.7714841 53.2431644,28.6982426 53.1787109,28.6103516 C53.1142575,28.5224605 53.0761719,28.3964852 53.0644531,28.2324219 C53.0527343,28.1386714 53.046875,28.06543 53.046875,28.0126953 C53.046875,27.9599607 53.0527343,27.9042972 53.0644531,27.8457031 C53.0761719,27.7871091 53.0966795,27.7080083 53.1259766,27.6083984 C53.1552736,27.5087886 53.1933591,27.3710946 53.2402344,27.1953125 C53.263672,27.0898432 53.3544914,26.7587918 53.5126953,26.2021484 C53.6708992,25.645505 53.861327,24.9658243 54.0839844,24.1630859 C54.3066417,23.3603475 54.5498034,22.4902391 54.8134766,21.5527344 C55.0771498,20.6152297 55.33203,19.7070356 55.578125,18.828125 C55.82422,17.9492144 56.046874,17.155277 56.2460938,16.4462891 C56.4453135,15.7373011 56.5917964,15.2128923 56.6855469,14.8730469 C56.5214836,14.990235 56.3603524,15.1132806 56.2021484,15.2421875 C56.0439445,15.3710944 55.8828133,15.511718 55.71875,15.6640625 C55.5429679,15.8281258 55.370118,15.8837893 55.2001953,15.8310547 C55.0302726,15.77832 54.9101566,15.6347668 54.8398438,15.4003906 C54.8164061,15.2832025 54.7988282,15.1601569 54.7871094,15.03125 C54.7753906,14.9257807 54.7783202,14.8056647 54.7958984,14.6708984 C54.8134767,14.5361321 54.8574215,14.4042975 54.9277344,14.2753906 C55.3144551,14.0410145 55.692381,13.8417977 56.0615234,13.6777344 C56.4306659,13.5136711 56.7851546,13.3671881 57.125,13.2382812 C57.1953129,13.0390615 57.2744136,12.8867193 57.3623047,12.78125 C57.4501958,12.6757807 57.5410152,12.6054689 57.6347656,12.5703125 C57.7285161,12.5351561 57.8281245,12.5234374 57.9335938,12.5351562 C58.039063,12.5468751 58.15039,12.564453 58.2675781,12.5878906 C58.5253919,12.6464847 58.6953121,12.7285151 58.7773438,12.8339844 C58.9414071,12.8105468 59.0996086,12.7929688 59.2519531,12.78125 C59.4042976,12.7695312 59.5624992,12.7636719 59.7265625,12.7636719 C60.4062534,12.7636719 60.9980444,12.8515616 61.5019531,13.0273438 C62.0058619,13.2031259 62.4189437,13.4404282 62.7412109,13.7392578 C63.0634782,14.0380874 63.2949212,14.3867168 63.4355469,14.7851562 C63.5761726,15.1835957 63.6289064,15.6054665 63.59375,16.0507812 C63.5585936,16.4375019 63.4560555,16.8388651 63.2861328,17.2548828 C63.1162101,17.6709005 62.8906264,18.0810527 62.609375,18.4853516 C62.3281236,18.8896505 62.0000019,19.2822247 61.625,19.6630859 C61.2499981,20.0439472 60.8339867,20.3925765 60.3769531,20.7089844 C60.7402362,20.9199229 61.0624986,21.1660142 61.34375,21.4472656 C61.6250014,21.728517 61.8593741,22.0332015 62.046875,22.3613281 C62.2343759,22.6894548 62.3691402,23.0234358 62.4511719,23.3632812 C62.5332035,23.7031267 62.5625001,24.0312484 62.5390625,24.3476562 Z M56.7207031,20.0410156 C56.6972655,20.1582037 56.6708986,20.27539 56.6416016,20.3925781 C56.6123045,20.5097662 56.5800783,20.6328119 56.5449219,20.7617188 C56.6855476,20.6093742 56.9228499,20.4687506 57.2568359,20.3398438 C57.590822,20.2109369 57.9101547,20.1464844 58.2148438,20.1464844 C58.3789071,20.1464844 58.5371086,20.1552733 58.6894531,20.1728516 C58.8417976,20.1904298 58.9882805,20.2109374 59.1289062,20.234375 C59.4570329,20.0234364 59.773436,19.7509782 60.078125,19.4169922 C60.382814,19.0830061 60.6494129,18.7255878 60.8779297,18.3447266 C61.1064465,17.9638653 61.2939446,17.5742207 61.4404297,17.1757812 C61.5869148,16.7773418 61.6777342,16.4082048 61.7128906,16.0683594 C61.7832035,15.2597616 61.6455095,14.6591817 61.2998047,14.2666016 C60.9540998,13.8740215 60.4648469,13.6777344 59.8320312,13.6777344 C59.4101541,13.6777344 58.9707054,13.7539055 58.5136719,13.90625 C58.4199214,14.210939 58.3027351,14.5888649 58.1621094,15.0400391 C58.0214837,15.4912132 57.8720711,15.9863254 57.7138672,16.5253906 C57.5556633,17.0644558 57.3886728,17.6328095 57.2128906,18.2304688 C57.0371085,18.828128 56.8730476,19.4316376 56.7207031,20.0410156 Z M56.421875,21.2011719 C56.2578117,21.8339875 56.0937508,22.5195276 55.9296875,23.2578125 C55.777343,23.8906282 55.6132821,24.6259724 55.4375,25.4638672 C55.2617179,26.301762 55.0742197,27.1953078 54.875,28.1445312 C54.9453129,28.2031253 55.0390619,28.2441405 55.15625,28.2675781 L55.5078125,28.3378906 C55.6367194,28.3613282 55.777343,28.3730469 55.9296875,28.3730469 C56.4570339,28.3730469 56.9931613,28.2646495 57.5380859,28.0478516 C58.0830105,27.8310536 58.5839821,27.5234395 59.0410156,27.125 C59.4980492,26.7265605 59.8818344,26.2431669 60.1923828,25.6748047 C60.5029312,25.1064425 60.6874997,24.4707066 60.7460938,23.7675781 C60.7695314,23.4511703 60.7490238,23.1669934 60.6845703,22.9150391 C60.6201169,22.6630847 60.5263678,22.4345713 60.4033203,22.2294922 C60.2802728,22.024413 60.1396492,21.8427742 59.9814453,21.6845703 C59.8232414,21.5263664 59.6562509,21.3886725 59.4804688,21.2714844 C58.9414036,21.5644546 58.3496126,21.8105459 57.7050781,22.0097656 C57.4941396,22.0683597 57.3125008,22.0771486 57.1601562,22.0361328 C57.0078117,21.995117 56.8789068,21.9306645 56.7734375,21.8427734 C56.6679682,21.7548824 56.5859378,21.6523443 56.5273438,21.5351562 C56.4687497,21.4179682 56.4335938,21.3066412 56.421875,21.2011719 Z M66.2480469,26.28125 C65.8027321,26.28125 65.4394545,26.2109382 65.1582031,26.0703125 C64.8769517,25.9296868 64.6572274,25.756837 64.4990234,25.5517578 C64.3408195,25.3466787 64.2294925,25.1240246 64.1650391,24.8837891 C64.1005856,24.6435535 64.0683594,24.4238291 64.0683594,24.2246094 C64.0683594,23.8730451 64.097656,23.5009785 64.15625,23.1083984 C64.214844,22.7158183 64.2851558,22.3525407 64.3671875,22.0185547 C64.4492192,21.6845686 64.5224606,21.4003918 64.5869141,21.1660156 C64.6513675,20.9316395 64.6953124,20.7851565 64.71875,20.7265625 C64.8242193,20.3867171 64.9619132,20.0908216 65.1318359,19.8388672 C65.3017587,19.5869128 65.539061,19.414063 65.84375,19.3203125 C65.9609381,19.2968749 66.0839837,19.2734376 66.2128906,19.25 C66.3183599,19.2382812 66.4267573,19.2324219 66.5380859,19.2324219 C66.6494146,19.2324219 66.7519527,19.2499998 66.8457031,19.2851562 C66.5292953,20.093754 66.2802743,20.7675754 66.0986328,21.3066406 C65.9169913,21.8457058 65.7792973,22.2851546 65.6855469,22.625 C65.5800776,23.0117207 65.5156251,23.3222645 65.4921875,23.5566406 C65.4335935,24.083987 65.480468,24.4824205 65.6328125,24.7519531 C65.785157,25.0214857 66.0957008,25.15625 66.5644531,25.15625 C66.8691421,25.15625 67.162108,25.0419933 67.4433594,24.8134766 C67.7246108,24.5849598 67.9824207,24.2890643 68.2167969,23.9257812 C68.1816404,23.7382803 68.1640625,23.5449229 68.1640625,23.3457031 C68.1640625,22.9707012 68.1962887,22.604494 68.2607422,22.2470703 C68.3251956,21.8896467 68.4013667,21.5556656 68.4892578,21.2451172 C68.5771489,20.9345688 68.6708979,20.6562512 68.7705078,20.4101562 C68.8701177,20.1640613 68.9550778,19.9707038 69.0253906,19.8300781 C69.1542975,19.5488267 69.2714838,19.3759769 69.3769531,19.3115234 C69.4824224,19.24707 69.6523426,19.2089844 69.8867187,19.1972656 C69.9804692,19.1855468 70.05957,19.1826172 70.1240234,19.1884766 C70.1884769,19.194336 70.2441404,19.2031249 70.2910156,19.2148438 C70.4316413,19.2500002 70.5019531,19.320312 70.5019531,19.4257812 C70.5019531,19.6132822 70.4902345,19.8945294 70.4667969,20.2695312 C70.4433593,20.6445331 70.3730475,21.031248 70.2558594,21.4296875 C70.1738277,21.7578141 70.0947269,22.0361317 70.0185547,22.2646484 C69.9423824,22.4931652 69.869141,22.6865226 69.7988281,22.8447266 C69.7285153,23.0029305 69.6582035,23.1318354 69.5878906,23.2314453 C69.5175778,23.3310552 69.4531253,23.4218746 69.3945312,23.5039062 C69.4179689,23.8554705 69.4472654,24.1367177 69.4824219,24.3476562 C69.5175783,24.5585948 69.5615232,24.719726 69.6142578,24.8310547 C69.6669925,24.9423834 69.7314449,25.0185545 69.8076172,25.0595703 C69.8837894,25.1005861 69.9687495,25.1210938 70.0625,25.1210938 C70.2265633,25.1210938 70.4199208,25.041993 70.6425781,24.8837891 C70.8652355,24.7255851 71.0966785,24.5263684 71.3369141,24.2861328 C71.5771496,24.0458972 71.8173816,23.782228 72.0576172,23.4951172 C72.2978528,23.2080064 72.5175771,22.9355482 72.7167969,22.6777344 C72.9160166,22.4199206 73.0859368,22.1943369 73.2265625,22.0009766 C73.3671882,21.8076162 73.4550779,21.6875002 73.4902344,21.640625 C73.572266,21.5351557 73.6513668,21.4707032 73.7275391,21.4472656 C73.8037113,21.423828 73.8652341,21.432617 73.9121094,21.4736328 C73.9589846,21.5146486 73.9853515,21.5791011 73.9912109,21.6669922 C73.9970703,21.7548833 73.9707034,21.851562 73.9121094,21.9570312 C73.6777332,22.402346 73.387697,22.8740209 73.0419922,23.3720703 C72.6962873,23.8701197 72.3271504,24.330076 71.9345703,24.7519531 C71.5419902,25.1738302 71.1464864,25.5253892 70.7480469,25.8066406 C70.3496074,26.087892 69.9746111,26.2285156 69.6230469,26.2285156 C69.306639,26.2285156 69.0576181,26.1201183 68.8759766,25.9033203 C68.694335,25.6865224 68.5390631,25.3730489 68.4101562,24.9628906 C68.1406237,25.3847677 67.8242206,25.7099598 67.4609375,25.9384766 C67.0976544,26.1669933 66.6933616,26.28125 66.2480469,26.28125 Z M78.0957031,22.6425781 C78.0371091,23.0058612 77.9814456,23.3515609 77.9287109,23.6796875 C77.8759763,24.0078141 77.8437501,24.2714834 77.8320312,24.4707031 C77.8203124,24.7636733 77.8730463,24.9746087 77.9902344,25.1035156 C78.1074225,25.2324225 78.2363274,25.296875 78.3769531,25.296875 C78.5410164,25.296875 78.7431629,25.2148446 78.9833984,25.0507812 C79.223634,24.8867179 79.4785143,24.6816419 79.7480469,24.4355469 C80.0175795,24.1894519 80.287108,23.9199233 80.5566406,23.6269531 C80.8261732,23.3339829 81.0751942,23.0556654 81.3037109,22.7919922 C81.5322277,22.528319 81.7255851,22.296876 81.8837891,22.0976562 C82.041993,21.8984365 82.1503903,21.7695315 82.2089844,21.7109375 C82.2792972,21.6406246 82.3525387,21.5996094 82.4287109,21.5878906 C82.5048832,21.5761718 82.566406,21.5878904 82.6132812,21.6230469 C82.6601565,21.6582033 82.6835938,21.7226558 82.6835938,21.8164062 C82.6835938,21.9101567 82.6367192,22.027343 82.5429688,22.1679688 C82.402343,22.3906261 82.2207042,22.6513657 81.9980469,22.9501953 C81.7753895,23.2490249 81.5292982,23.556639 81.2597656,23.8730469 C80.990233,24.1894547 80.7060562,24.4999985 80.4072266,24.8046875 C80.1083969,25.1093765 79.8095718,25.3789051 79.5107422,25.6132812 C79.2119126,25.8476574 78.9248061,26.0380852 78.6494141,26.1845703 C78.3740221,26.3310554 78.1250011,26.4042969 77.9023438,26.4042969 C77.7382804,26.4042969 77.5830085,26.3574223 77.4365234,26.2636719 C77.2900383,26.1699214 77.1582037,26.0468758 77.0410156,25.8945312 C76.9238275,25.7421867 76.8330081,25.5722666 76.7685547,25.3847656 C76.7041012,25.1972647 76.6777343,25.0097666 76.6894531,24.8222656 C76.7011719,24.740234 76.7187499,24.5996104 76.7421875,24.4003906 C76.2499975,24.9511746 75.7548853,25.3876937 75.2568359,25.7099609 C74.7587866,26.0322282 74.2812523,26.1933594 73.8242188,26.1933594 C73.6601554,26.1933594 73.4843759,26.1523442 73.296875,26.0703125 C73.1093741,25.9882808 72.9423835,25.8535166 72.7958984,25.6660156 C72.6494133,25.4785147 72.5292973,25.2324234 72.4355469,24.9277344 C72.3417964,24.6230454 72.3066405,24.2539084 72.3300781,23.8203125 C72.3652346,23.1406216 72.4999988,22.4960968 72.734375,21.8867188 C72.9687512,21.2773407 73.2646467,20.7470726 73.6220703,20.2958984 C73.979494,19.8447243 74.3837868,19.487306 74.8349609,19.2236328 C75.2861351,18.9599596 75.7402321,18.828125 76.1972656,18.828125 C76.3964854,18.828125 76.5781242,18.8779292 76.7421875,18.9775391 C76.9062508,19.0771489 77.0468744,19.2060539 77.1640625,19.3642578 C77.2812506,19.5224617 77.3779293,19.6953116 77.4541016,19.8828125 C77.5302738,20.0703134 77.5859373,20.2460929 77.6210938,20.4101562 C77.7031254,20.0703108 77.7792965,19.7363298 77.8496094,19.4082031 C77.9199222,19.0800765 77.990234,18.7695327 78.0605469,18.4765625 C78.177735,18.0429666 78.3007806,17.5742213 78.4296875,17.0703125 C78.5468756,16.6367166 78.6816399,16.1386747 78.8339844,15.5761719 C78.9863289,15.0136691 79.1562491,14.4218781 79.34375,13.8007812 C79.4609381,13.7070308 79.5722651,13.636719 79.6777344,13.5898438 C79.7832037,13.5429685 79.882812,13.5078126 79.9765625,13.484375 C80.0820318,13.4492186 80.1816402,13.4316406 80.2753906,13.4316406 C80.3925787,13.4316406 80.4980464,13.4462889 80.5917969,13.4755859 C80.6855473,13.504883 80.7646481,13.5810541 80.8291016,13.7041016 C80.893555,13.8271491 80.9374999,14.0117175 80.9609375,14.2578125 C80.9843751,14.5039075 80.9843751,14.8378885 80.9609375,15.2597656 C80.9374999,15.7753932 80.8466805,16.3378876 80.6884766,16.9472656 C80.5302726,17.5566437 80.3222669,18.1865202 80.0644531,18.8369141 C79.8066393,19.4873079 79.5107439,20.1376921 79.1767578,20.7880859 C78.8427718,21.4384798 78.4824238,22.0566377 78.0957031,22.6425781 Z M77.0585938,22.8710938 C77.105469,22.6484364 77.1494139,22.4257824 77.1904297,22.203125 C77.2314455,21.9804676 77.2812497,21.7519543 77.3398438,21.5175781 C77.3164061,21.5292969 77.2958985,21.5410156 77.2783203,21.5527344 C77.2607421,21.5644532 77.2402345,21.5761718 77.2167969,21.5878906 C77.08789,21.6464847 77.0000002,21.643555 76.953125,21.5791016 C76.9062498,21.5146481 76.8828125,21.4121101 76.8828125,21.2714844 C76.8828125,21.2011715 76.8769532,21.0751962 76.8652344,20.8935547 C76.8535156,20.7119132 76.8212893,20.524415 76.7685547,20.3310547 C76.71582,20.1376943 76.6367193,19.9677742 76.53125,19.8212891 C76.4257807,19.674804 76.2792978,19.6015625 76.0917969,19.6015625 C75.8222643,19.6015625 75.5468764,19.7392564 75.265625,20.0146484 C74.9843736,20.2900404 74.7207044,20.6240215 74.4746094,21.0166016 C74.2285144,21.4091817 74.0234383,21.8281228 73.859375,22.2734375 C73.6953117,22.7187522 73.6015626,23.1171857 73.578125,23.46875 C73.5546874,24.0312528 73.6249992,24.4355456 73.7890625,24.6816406 C73.9531258,24.9277356 74.1757798,25.0507812 74.4570312,25.0507812 C74.6679698,25.0507812 74.8994128,24.9687508 75.1513672,24.8046875 C75.4033216,24.6406242 75.6494129,24.4414074 75.8896484,24.2070312 C76.129884,23.9726551 76.352538,23.7324231 76.5576172,23.4863281 C76.7626963,23.2402331 76.9296869,23.0351571 77.0585938,22.8710938 Z M86.796875,22.6425781 C86.738281,23.0058612 86.6826175,23.3515609 86.6298828,23.6796875 C86.5771482,24.0078141 86.5449219,24.2714834 86.5332031,24.4707031 C86.5214843,24.7636733 86.5742182,24.9746087 86.6914062,25.1035156 C86.8085943,25.2324225 86.9374993,25.296875 87.078125,25.296875 C87.2421883,25.296875 87.4443347,25.2148446 87.6845703,25.0507812 C87.9248059,24.8867179 88.1796862,24.6816419 88.4492188,24.4355469 C88.7187513,24.1894519 88.9882799,23.9199233 89.2578125,23.6269531 C89.5273451,23.3339829 89.776366,23.0556654 90.0048828,22.7919922 C90.2333996,22.528319 90.426757,22.296876 90.5849609,22.0976562 C90.7431649,21.8984365 90.8515622,21.7695315 90.9101562,21.7109375 C90.9804691,21.6406246 91.0537106,21.5996094 91.1298828,21.5878906 C91.2060551,21.5761718 91.2675779,21.5878904 91.3144531,21.6230469 C91.3613284,21.6582033 91.3847656,21.7226558 91.3847656,21.8164062 C91.3847656,21.9101567 91.3378911,22.027343 91.2441406,22.1679688 C91.1035149,22.3906261 90.9218761,22.6513657 90.6992188,22.9501953 C90.4765614,23.2490249 90.2304701,23.556639 89.9609375,23.8730469 C89.6914049,24.1894547 89.4072281,24.4999985 89.1083984,24.8046875 C88.8095688,25.1093765 88.5107437,25.3789051 88.2119141,25.6132812 C87.9130844,25.8476574 87.6259779,26.0380852 87.3505859,26.1845703 C87.0751939,26.3310554 86.826173,26.4042969 86.6035156,26.4042969 C86.4394523,26.4042969 86.2841804,26.3574223 86.1376953,26.2636719 C85.9912102,26.1699214 85.8593756,26.0468758 85.7421875,25.8945312 C85.6249994,25.7421867 85.53418,25.5722666 85.4697266,25.3847656 C85.4052731,25.1972647 85.3789062,25.0097666 85.390625,24.8222656 C85.4023438,24.740234 85.4199218,24.5996104 85.4433594,24.4003906 C84.9511694,24.9511746 84.4560572,25.3876937 83.9580078,25.7099609 C83.4599584,26.0322282 82.9824242,26.1933594 82.5253906,26.1933594 C82.3613273,26.1933594 82.1855478,26.1523442 81.9980469,26.0703125 C81.8105459,25.9882808 81.6435554,25.8535166 81.4970703,25.6660156 C81.3505852,25.4785147 81.2304692,25.2324234 81.1367188,24.9277344 C81.0429683,24.6230454 81.0078124,24.2539084 81.03125,23.8203125 C81.0664064,23.1406216 81.2011707,22.4960968 81.4355469,21.8867188 C81.669923,21.2773407 81.9658185,20.7470726 82.3232422,20.2958984 C82.6806658,19.8447243 83.0849587,19.487306 83.5361328,19.2236328 C83.9873069,18.9599596 84.441404,18.828125 84.8984375,18.828125 C85.0976572,18.828125 85.2792961,18.8779292 85.4433594,18.9775391 C85.6074227,19.0771489 85.7480463,19.2060539 85.8652344,19.3642578 C85.9824225,19.5224617 86.0791012,19.6953116 86.1552734,19.8828125 C86.2314457,20.0703134 86.2871092,20.2460929 86.3222656,20.4101562 C86.4042973,20.0703108 86.4804684,19.7363298 86.5507812,19.4082031 C86.6210941,19.0800765 86.6914059,18.7695327 86.7617188,18.4765625 C86.8789068,18.0429666 87.0019525,17.5742213 87.1308594,17.0703125 C87.2480475,16.6367166 87.3828117,16.1386747 87.5351562,15.5761719 C87.6875008,15.0136691 87.8574209,14.4218781 88.0449219,13.8007812 C88.16211,13.7070308 88.273437,13.636719 88.3789062,13.5898438 C88.4843755,13.5429685 88.5839839,13.5078126 88.6777344,13.484375 C88.7832037,13.4492186 88.882812,13.4316406 88.9765625,13.4316406 C89.0937506,13.4316406 89.1992183,13.4462889 89.2929688,13.4755859 C89.3867192,13.504883 89.46582,13.5810541 89.5302734,13.7041016 C89.5947269,13.8271491 89.6386718,14.0117175 89.6621094,14.2578125 C89.685547,14.5039075 89.685547,14.8378885 89.6621094,15.2597656 C89.6386718,15.7753932 89.5478524,16.3378876 89.3896484,16.9472656 C89.2314445,17.5566437 89.0234388,18.1865202 88.765625,18.8369141 C88.5078112,19.4873079 88.2119157,20.1376921 87.8779297,20.7880859 C87.5439436,21.4384798 87.1835957,22.0566377 86.796875,22.6425781 Z M85.7597656,22.8710938 C85.8066409,22.6484364 85.8505857,22.4257824 85.8916016,22.203125 C85.9326174,21.9804676 85.9824216,21.7519543 86.0410156,21.5175781 C86.017578,21.5292969 85.9970704,21.5410156 85.9794922,21.5527344 C85.961914,21.5644532 85.9414064,21.5761718 85.9179688,21.5878906 C85.7890619,21.6464847 85.7011721,21.643555 85.6542969,21.5791016 C85.6074216,21.5146481 85.5839844,21.4121101 85.5839844,21.2714844 C85.5839844,21.2011715 85.5781251,21.0751962 85.5664062,20.8935547 C85.5546874,20.7119132 85.5224612,20.524415 85.4697266,20.3310547 C85.4169919,20.1376943 85.3378912,19.9677742 85.2324219,19.8212891 C85.1269526,19.674804 84.9804697,19.6015625 84.7929688,19.6015625 C84.5234362,19.6015625 84.2480483,19.7392564 83.9667969,20.0146484 C83.6855455,20.2900404 83.4218762,20.6240215 83.1757812,21.0166016 C82.9296863,21.4091817 82.7246102,21.8281228 82.5605469,22.2734375 C82.3964836,22.7187522 82.3027345,23.1171857 82.2792969,23.46875 C82.2558593,24.0312528 82.3261711,24.4355456 82.4902344,24.6816406 C82.6542977,24.9277356 82.8769517,25.0507812 83.1582031,25.0507812 C83.3691417,25.0507812 83.6005847,24.9687508 83.8525391,24.8046875 C84.1044934,24.6406242 84.3505847,24.4414074 84.5908203,24.2070312 C84.8310559,23.9726551 85.0537099,23.7324231 85.2587891,23.4863281 C85.4638682,23.2402331 85.6308587,23.0351571 85.7597656,22.8710938 Z M93.7753906,15.6464844 C93.7402342,15.7753913 93.6728521,15.9013666 93.5732422,16.0244141 C93.4736323,16.1474616 93.3623053,16.2470699 93.2392578,16.3232422 C93.1162103,16.3994144 92.990235,16.4492186 92.8613281,16.4726562 C92.7324212,16.4960939 92.6269535,16.4726566 92.5449219,16.4023438 C92.2988269,16.2148428 92.1699219,16.0126964 92.1582031,15.7958984 C92.1464843,15.5791005 92.1992182,15.3740244 92.3164062,15.1806641 C92.4335943,14.9873037 92.5800772,14.8232429 92.7558594,14.6884766 C92.9316415,14.5537103 93.0839837,14.4746095 93.2128906,14.4511719 C93.3417975,14.4277343 93.4501949,14.4541012 93.5380859,14.5302734 C93.625977,14.6064457 93.6933591,14.7060541 93.7402344,14.8291016 C93.7871096,14.9521491 93.8134765,15.089843 93.8193359,15.2421875 C93.8251953,15.394532 93.8105471,15.5292963 93.7753906,15.6464844 Z M91.3496094,19.390625 C91.4082034,19.3203121 91.5195304,19.261719 91.6835938,19.2148438 C91.8476571,19.1679685 92.0175772,19.129883 92.1933594,19.1005859 C92.3691415,19.0712889 92.5302727,19.053711 92.6767578,19.0478516 C92.8232429,19.0419922 92.908203,19.0449218 92.9316406,19.0566406 C92.9433594,19.0683594 92.9140629,19.1914051 92.84375,19.4257812 C92.7734371,19.6601574 92.6855474,19.9355453 92.5800781,20.2519531 C92.4746088,20.568361 92.3632818,20.893553 92.2460938,21.2275391 C92.1289057,21.5615251 92.0410159,21.8339833 91.9824219,22.0449219 C91.9238278,22.2558604 91.853516,22.4931627 91.7714844,22.7568359 C91.6894527,23.0205091 91.6162113,23.2783191 91.5517578,23.5302734 C91.4873044,23.7822278 91.4433595,24.0195301 91.4199219,24.2421875 C91.3964843,24.4648449 91.4140622,24.634765 91.4726562,24.7519531 C91.5312503,24.8925788 91.5957028,24.9892575 91.6660156,25.0419922 C91.7363285,25.0947268 91.8124996,25.1210938 91.8945312,25.1210938 C92.1289074,25.1210938 92.4248029,24.9921888 92.7822266,24.734375 C93.1396502,24.4765612 93.5029278,24.1689471 93.8720703,23.8115234 C94.2412128,23.4540998 94.5839828,23.0908222 94.9003906,22.7216797 C95.2167985,22.3525372 95.4511711,22.0566417 95.6035156,21.8339844 C95.6972661,21.7167963 95.7939448,21.6406252 95.8935547,21.6054688 C95.9931646,21.5703123 96.075195,21.5761716 96.1396484,21.6230469 C96.2041019,21.6699221 96.2392578,21.7460932 96.2451172,21.8515625 C96.2509766,21.9570318 96.212891,22.0800774 96.1308594,22.2207031 C95.9433584,22.5488298 95.6679706,22.9384743 95.3046875,23.3896484 C94.9414044,23.8408226 94.5546896,24.274412 94.1445312,24.6904297 C93.7343729,25.1064474 93.3330098,25.460936 92.9404297,25.7539062 C92.5478496,26.0468765 92.2285169,26.1992187 91.9824219,26.2109375 C91.7832021,26.2226563 91.586915,26.1904301 91.3935547,26.1142578 C91.2001943,26.0380856 91.0244149,25.9326179 90.8662109,25.7978516 C90.708007,25.6630853 90.5761724,25.5048837 90.4707031,25.3232422 C90.3652338,25.1416007 90.3066407,24.9511729 90.2949219,24.7519531 C90.2597654,24.4589829 90.2597654,24.0576197 90.2949219,23.5478516 C90.3300783,23.0380834 90.3945308,22.5166042 90.4882812,21.9833984 C90.5820317,21.4501926 90.7021477,20.9433618 90.8486328,20.4628906 C90.9951179,19.9824195 91.1621084,19.6250012 91.3496094,19.390625 Z M102.810547,22.34375 C102.458983,22.8593776 102.060549,23.3603491 101.615234,23.8466797 C101.16992,24.3330102 100.698245,24.7665997 100.200195,25.1474609 C99.7021459,25.5283222 99.1923854,25.8359363 98.6708984,26.0703125 C98.1494115,26.3046887 97.6425806,26.421875 97.1503906,26.421875 C96.8925768,26.421875 96.6142593,26.3603522 96.3154297,26.2373047 C96.0166001,26.1142572 95.7441419,25.9238294 95.4980469,25.6660156 C95.2519519,25.4082018 95.0556648,25.0742208 94.9091797,24.6640625 C94.7626946,24.2539042 94.7187497,23.7558623 94.7773438,23.1699219 C94.824219,22.6894507 94.9736316,22.1826199 95.2255859,21.6494141 C95.4775403,21.1162083 95.7880841,20.6269554 96.1572266,20.1816406 C96.526369,19.7363259 96.9423805,19.367189 97.4052734,19.0742188 C97.8681664,18.7812485 98.333982,18.6347656 98.8027344,18.6347656 C99.2480491,18.6347656 99.5703115,18.7460926 99.7695312,18.96875 C99.968751,19.1914074 100.056641,19.4667952 100.033203,19.7949219 C99.9980467,20.1582049 99.8955087,20.492186 99.7255859,20.796875 C99.5556632,21.101564 99.3535168,21.3769519 99.1191406,21.6230469 C98.8847645,21.8691419 98.6357435,22.0917959 98.3720703,22.2910156 C98.1083971,22.4902354 97.8593762,22.6718742 97.625,22.8359375 C97.3671862,23.0117196 97.1210949,23.1787101 96.8867188,23.3369141 C96.6523426,23.495118 96.4472665,23.6386712 96.2714844,23.7675781 C96.2832032,24.0605483 96.335937,24.3066396 96.4296875,24.5058594 C96.523438,24.7050791 96.6406243,24.8662103 96.78125,24.9892578 C96.9218757,25.1123053 97.0830069,25.200195 97.2646484,25.2529297 C97.44629,25.3056643 97.6308584,25.3320312 97.8183594,25.3320312 C98.2167989,25.3320312 98.6328103,25.2060559 99.0664062,24.9541016 C99.5000022,24.7021472 99.9248026,24.3974627 100.34082,24.0400391 C100.756838,23.6826154 101.143553,23.3105488 101.500977,22.9238281 C101.8584,22.5371074 102.154296,22.2031264 102.388672,21.921875 C102.470704,21.8281245 102.555664,21.772461 102.643555,21.7548828 C102.731446,21.7373046 102.801758,21.7490232 102.854492,21.7900391 C102.907227,21.8310549 102.933594,21.9013667 102.933594,22.0009766 C102.933594,22.1005864 102.892579,22.2148431 102.810547,22.34375 Z M98.3105469,19.6367188 C98.1699212,19.6367188 98.0029307,19.7070305 97.8095703,19.8476562 C97.61621,19.988282 97.4257822,20.1904284 97.2382812,20.4541016 C97.0507803,20.7177748 96.8750008,21.0400372 96.7109375,21.4208984 C96.5468742,21.8017597 96.4238285,22.2382788 96.3417969,22.7304688 C96.4824226,22.6249995 96.6347648,22.5166021 96.7988281,22.4052734 C96.9628914,22.2939448 97.1269523,22.1738288 97.2910156,22.0449219 C97.7949244,21.6582012 98.1464834,21.3183608 98.3457031,21.0253906 C98.5449229,20.7324204 98.6562499,20.4804698 98.6796875,20.2695312 C98.7031251,20.0468739 98.6796879,19.8857427 98.609375,19.7861328 C98.5390621,19.6865229 98.4394538,19.6367188 98.3105469,19.6367188 Z M104.023438,25.4023438 C104.09375,25.449219 104.18457,25.4726562 104.295898,25.4726562 C104.407227,25.4726562 104.518554,25.449219 104.629883,25.4023438 C104.741211,25.3554685 104.846679,25.291016 104.946289,25.2089844 C105.045899,25.1269527 105.11914,25.021485 105.166016,24.8925781 C105.212891,24.7636712 105.212891,24.5791028 105.166016,24.3388672 C105.11914,24.0986316 105.045899,23.8408217 104.946289,23.5654297 C104.846679,23.2900377 104.738282,23.0117202 104.621094,22.7304688 C104.503906,22.4492173 104.404297,22.1914074 104.322266,21.9570312 C104.251953,21.7812491 104.19336,21.6171883 104.146484,21.4648438 C104.099609,21.3359369 104.055664,21.2099616 104.014648,21.0869141 C103.973633,20.9638666 103.941406,20.8789065 103.917969,20.8320312 C103.859375,20.9257817 103.756837,21.0781239 103.610352,21.2890625 C103.463866,21.5000011 103.305665,21.7197254 103.135742,21.9482422 C102.965819,22.176759 102.804688,22.3876943 102.652344,22.5810547 C102.499999,22.774415 102.394532,22.9062496 102.335938,22.9765625 C102.242187,23.0820318 102.151368,23.1435546 102.063477,23.1611328 C101.975585,23.178711 101.902344,23.1611331 101.84375,23.1083984 C101.785156,23.0556638 101.75293,22.9794927 101.74707,22.8798828 C101.741211,22.7802729 101.785156,22.660157 101.878906,22.5195312 C101.949219,22.4257808 102.054687,22.2763682 102.195313,22.0712891 C102.335938,21.8662099 102.476562,21.6552745 102.617188,21.4384766 C102.757813,21.2216786 102.886718,21.0283212 103.003906,20.8583984 C103.121094,20.6884757 103.185547,20.5859377 103.197266,20.5507812 C103.220703,20.4570308 103.188477,20.3339851 103.100586,20.1816406 C103.012695,20.0292961 102.998047,19.8535166 103.056641,19.6542969 C103.103516,19.4902336 103.208984,19.2998058 103.373047,19.0830078 C103.53711,18.8662099 103.730468,18.6699228 103.953125,18.4941406 C104.175782,18.3183585 104.404296,18.1865239 104.638672,18.0986328 C104.873048,18.0107417 105.083983,18.0136714 105.271484,18.1074219 C105.423829,18.2011723 105.546875,18.3037104 105.640625,18.4150391 C105.734375,18.5263677 105.769531,18.6406244 105.746094,18.7578125 C105.722656,18.8164065 105.6875,18.8925777 105.640625,18.9863281 C105.59375,19.0800786 105.523438,19.1943353 105.429688,19.3291016 C105.335937,19.4638679 105.201173,19.6367177 105.025391,19.8476562 C105.060547,20.1171888 105.110351,20.3632801 105.174805,20.5859375 C105.239258,20.8085949 105.300781,21.0019523 105.359375,21.1660156 C105.429688,21.3652354 105.505859,21.5468742 105.587891,21.7109375 C105.69336,21.9218761 105.804687,22.1386708 105.921875,22.3613281 C106.039063,22.5839855 106.144531,22.8037099 106.238281,23.0205078 C106.332032,23.2373058 106.408203,23.4394522 106.466797,23.6269531 C106.525391,23.8144541 106.542969,23.9726556 106.519531,24.1015625 C106.484375,24.3007822 106.381837,24.5410142 106.211914,24.8222656 C106.041991,25.103517 105.831056,25.3759752 105.579102,25.6396484 C105.327147,25.9033216 105.040041,26.1289053 104.717773,26.3164062 C104.395506,26.5039072 104.058596,26.5976562 103.707031,26.5976562 C103.460936,26.5976562 103.223634,26.5214851 102.995117,26.3691406 C102.7666,26.2167961 102.573243,26.038087 102.415039,25.8330078 C102.256835,25.6279287 102.139649,25.4257822 102.063477,25.2265625 C101.987304,25.0273428 101.978515,24.8750005 102.037109,24.7695312 C102.107422,24.6289055 102.171875,24.5175785 102.230469,24.4355469 C102.289063,24.3535152 102.376953,24.2597662 102.494141,24.1542969 C102.541016,24.1191404 102.599609,24.0781252 102.669922,24.03125 C102.728516,23.9960936 102.810546,23.9609377 102.916016,23.9257812 L103.285156,23.8027344 C103.402344,24.1660174 103.507812,24.4501943 103.601563,24.6552734 C103.695313,24.8603526 103.771484,25.0214838 103.830078,25.1386719 C103.900391,25.2675788 103.964843,25.3554685 104.023438,25.4023438 Z" id="HikingBuddies"></path>
                </g>
            </g>
        </g>
    </g>
</svg>